G75*
%MOIN*%
%OFA0B0*%
%FSLAX25Y25*%
%IPPOS*%
%LPD*%
%AMOC8*
5,1,8,0,0,1.08239X$1,22.5*
%
%ADD10C,0.08200*%
%ADD11OC8,0.07100*%
%ADD12C,0.07100*%
%ADD13OC8,0.07000*%
%ADD14C,0.15430*%
%ADD15C,0.08674*%
%ADD16R,0.08674X0.08674*%
%ADD17C,0.11800*%
%ADD18C,0.07800*%
D10*
X0031000Y0284300D03*
X0031000Y0324300D03*
D11*
X0071000Y0314300D03*
X0071000Y0289300D03*
D12*
X0081000Y0289300D03*
X0081000Y0314300D03*
D13*
X0056000Y0096800D03*
X0046000Y0096800D03*
D14*
X0031000Y0016800D03*
X0031000Y0036800D03*
X0031000Y0056800D03*
X0051000Y0056800D03*
X0051000Y0036800D03*
X0051000Y0016800D03*
X0071000Y0016800D03*
X0071000Y0036800D03*
X0071000Y0056800D03*
D15*
X0071000Y0076800D03*
X0056000Y0126800D03*
X0046000Y0126800D03*
X0031000Y0136800D03*
X0016000Y0126800D03*
X0031000Y0156800D03*
X0016000Y0166800D03*
X0016000Y0186800D03*
X0016000Y0206800D03*
X0031000Y0231800D03*
X0036000Y0211800D03*
X0046000Y0211800D03*
X0056000Y0211800D03*
X0071000Y0231800D03*
X0086000Y0206800D03*
X0086000Y0186800D03*
X0086000Y0166800D03*
X0071000Y0156800D03*
X0056000Y0166800D03*
X0046000Y0166800D03*
X0046000Y0181800D03*
X0056000Y0181800D03*
X0066000Y0181800D03*
X0036000Y0181800D03*
X0071000Y0136800D03*
X0086000Y0126800D03*
X0031000Y0076800D03*
X0016000Y0284300D03*
X0046000Y0284300D03*
X0056000Y0284300D03*
X0056000Y0324300D03*
X0046000Y0324300D03*
X0016000Y0324300D03*
D16*
X0066000Y0211800D03*
D17*
X0071000Y0264300D03*
X0051000Y0264300D03*
X0031000Y0264300D03*
D18*
X0046000Y0340800D02*
X0046000Y0347800D01*
X0056000Y0347800D02*
X0056000Y0340800D01*
X0087500Y0091800D02*
X0094500Y0091800D01*
X0094500Y0081800D02*
X0087500Y0081800D01*
X0014500Y0081800D02*
X0007500Y0081800D01*
X0007500Y0091800D02*
X0014500Y0091800D01*
M02*
