%
M48
M72
T01C0.03200
T02C0.03937
T03C0.04000
T04C0.04400
T05C0.05906
T06C0.10630
%
T01
X46000Y96800
X56000Y96800
X71000Y289300
X81000Y289300
X81000Y314300
X71000Y314300
T02
X56000Y324300
X46000Y324300
X16000Y324300
X16000Y284300
X46000Y284300
X56000Y284300
X71000Y231800
X66000Y211800
X56000Y211800
X46000Y211800
X36000Y211800
X31000Y231800
X16000Y206800
X16000Y186800
X16000Y166800
X31000Y156800
X46000Y166800
X56000Y166800
X56000Y181800
X46000Y181800
X36000Y181800
X66000Y181800
X86000Y186800
X86000Y166800
X71000Y156800
X71000Y136800
X86000Y126800
X56000Y126800
X46000Y126800
X31000Y136800
X16000Y126800
X31000Y76800
X71000Y76800
X86000Y206800
T03
X91000Y91800
X91000Y81800
X11000Y81800
X11000Y91800
X46000Y344300
X56000Y344300
T04
X31000Y324300
X31000Y284300
T05
X31000Y264300
X51000Y264300
X71000Y264300
T06
X31000Y16800
X31000Y36800
X31000Y56800
X51000Y56800
X51000Y36800
X51000Y16800
X71000Y16800
X71000Y36800
X71000Y56800
M30
