G75*
%MOIN*%
%OFA0B0*%
%FSLAX25Y25*%
%IPPOS*%
%LPD*%
%AMOC8*
5,1,8,0,0,1.08239X$1,22.5*
%
%ADD10C,0.00200*%
%ADD11C,0.00250*%
D10*
X0021000Y0270800D02*
X0024500Y0270800D01*
X0021000Y0270800D02*
X0021000Y0276222D01*
X0021000Y0280159D02*
X0021000Y0285581D01*
X0021000Y0289519D02*
X0021000Y0294941D01*
X0021000Y0298878D02*
X0021000Y0304300D01*
X0020278Y0321800D02*
X0016000Y0321800D01*
X0024215Y0321800D02*
X0028493Y0321800D01*
X0032430Y0321800D02*
X0036709Y0321800D01*
X0040646Y0321800D02*
X0044924Y0321800D01*
X0048861Y0321800D02*
X0053139Y0321800D01*
X0084993Y0330135D02*
X0084807Y0330858D01*
X0084607Y0331577D01*
X0084390Y0332292D01*
X0084159Y0333002D01*
X0083913Y0333707D01*
X0083651Y0334406D01*
X0081722Y0321800D02*
X0086000Y0321800D01*
X0077785Y0321800D02*
X0073507Y0321800D01*
X0069570Y0321800D02*
X0065291Y0321800D01*
X0061354Y0321800D02*
X0057076Y0321800D01*
X0077281Y0344915D02*
X0076782Y0345471D01*
X0076271Y0346015D01*
X0075749Y0346549D01*
X0075215Y0347071D01*
X0074671Y0347582D01*
X0074115Y0348081D01*
X0051000Y0348585D02*
X0051000Y0344307D01*
X0051000Y0340370D02*
X0051000Y0336091D01*
X0051000Y0332154D02*
X0051000Y0327876D01*
X0051000Y0323939D02*
X0051000Y0319661D01*
X0042664Y0287807D02*
X0041941Y0287993D01*
X0041222Y0288194D01*
X0040508Y0288410D01*
X0039798Y0288641D01*
X0039093Y0288888D01*
X0038394Y0289149D01*
X0051000Y0291078D02*
X0051000Y0286800D01*
X0051000Y0295015D02*
X0051000Y0299293D01*
X0051000Y0303230D02*
X0051000Y0307509D01*
X0051000Y0311446D02*
X0051000Y0315724D01*
X0059336Y0287807D02*
X0060059Y0287993D01*
X0060778Y0288194D01*
X0061492Y0288410D01*
X0062202Y0288641D01*
X0062907Y0288888D01*
X0063606Y0289149D01*
X0063500Y0270800D02*
X0058500Y0270800D01*
X0081000Y0270800D02*
X0081000Y0276222D01*
X0081000Y0280159D02*
X0081000Y0285581D01*
X0081000Y0289519D02*
X0081000Y0294941D01*
X0081000Y0298878D02*
X0081000Y0304300D01*
X0082030Y0337991D02*
X0081677Y0338649D01*
X0081311Y0339300D01*
X0080931Y0339942D01*
X0080537Y0340577D01*
X0080130Y0341202D01*
X0079709Y0341819D01*
X0051000Y0352522D02*
X0051000Y0356800D01*
X0059335Y0355793D02*
X0060058Y0355607D01*
X0060777Y0355407D01*
X0061492Y0355190D01*
X0062202Y0354959D01*
X0062907Y0354713D01*
X0063606Y0354451D01*
X0085714Y0326267D02*
X0085801Y0325525D01*
X0085873Y0324782D01*
X0085928Y0324038D01*
X0085968Y0323292D01*
X0085992Y0322546D01*
X0086000Y0321800D01*
X0055467Y0356514D02*
X0054725Y0356601D01*
X0053982Y0356673D01*
X0053238Y0356728D01*
X0052492Y0356768D01*
X0051746Y0356792D01*
X0051000Y0356800D01*
X0042665Y0355793D02*
X0041942Y0355607D01*
X0041223Y0355407D01*
X0040508Y0355190D01*
X0039798Y0354959D01*
X0039093Y0354713D01*
X0038394Y0354451D01*
X0027885Y0348081D02*
X0027329Y0347582D01*
X0026785Y0347071D01*
X0026251Y0346549D01*
X0025729Y0346015D01*
X0025218Y0345471D01*
X0024719Y0344915D01*
X0018349Y0334406D02*
X0018087Y0333707D01*
X0017841Y0333002D01*
X0017610Y0332292D01*
X0017393Y0331577D01*
X0017193Y0330858D01*
X0017007Y0330135D01*
X0046533Y0356514D02*
X0047275Y0356601D01*
X0048018Y0356673D01*
X0048762Y0356728D01*
X0049508Y0356768D01*
X0050254Y0356792D01*
X0051000Y0356800D01*
X0067191Y0352830D02*
X0067849Y0352477D01*
X0068500Y0352111D01*
X0069142Y0351731D01*
X0069777Y0351337D01*
X0070402Y0350930D01*
X0071019Y0350509D01*
X0034809Y0352830D02*
X0034151Y0352477D01*
X0033500Y0352111D01*
X0032858Y0351731D01*
X0032223Y0351337D01*
X0031598Y0350930D01*
X0030981Y0350509D01*
X0016286Y0326267D02*
X0016199Y0325525D01*
X0016127Y0324782D01*
X0016072Y0324038D01*
X0016032Y0323292D01*
X0016008Y0322546D01*
X0016000Y0321800D01*
X0019970Y0337991D02*
X0020323Y0338649D01*
X0020689Y0339300D01*
X0021069Y0339942D01*
X0021463Y0340577D01*
X0021870Y0341202D01*
X0022291Y0341819D01*
X0017007Y0313464D02*
X0017193Y0312741D01*
X0017394Y0312022D01*
X0017610Y0311308D01*
X0017841Y0310598D01*
X0018088Y0309893D01*
X0018349Y0309194D01*
X0079709Y0301781D02*
X0080130Y0302398D01*
X0080537Y0303023D01*
X0080931Y0303657D01*
X0081311Y0304300D01*
X0081677Y0304950D01*
X0082030Y0305609D01*
X0022291Y0301781D02*
X0021870Y0302398D01*
X0021463Y0303023D01*
X0021069Y0303657D01*
X0020689Y0304300D01*
X0020323Y0304950D01*
X0019970Y0305609D01*
X0051000Y0286800D02*
X0051747Y0286808D01*
X0052493Y0286832D01*
X0053238Y0286872D01*
X0053983Y0286927D01*
X0054726Y0286999D01*
X0055467Y0287086D01*
X0047465Y0321800D02*
X0047467Y0321919D01*
X0047473Y0322037D01*
X0047483Y0322156D01*
X0047497Y0322274D01*
X0047515Y0322391D01*
X0047537Y0322508D01*
X0047562Y0322624D01*
X0047592Y0322739D01*
X0047625Y0322853D01*
X0047663Y0322966D01*
X0047704Y0323077D01*
X0047748Y0323187D01*
X0047797Y0323295D01*
X0047849Y0323402D01*
X0047905Y0323507D01*
X0047964Y0323610D01*
X0048026Y0323711D01*
X0048092Y0323810D01*
X0048161Y0323907D01*
X0048234Y0324001D01*
X0048309Y0324092D01*
X0048388Y0324182D01*
X0048469Y0324268D01*
X0048553Y0324352D01*
X0048641Y0324432D01*
X0048730Y0324510D01*
X0048823Y0324585D01*
X0048917Y0324656D01*
X0049015Y0324725D01*
X0049114Y0324790D01*
X0049215Y0324851D01*
X0049319Y0324910D01*
X0049424Y0324964D01*
X0049532Y0325016D01*
X0049640Y0325063D01*
X0049751Y0325107D01*
X0049863Y0325147D01*
X0049976Y0325183D01*
X0050090Y0325216D01*
X0050205Y0325244D01*
X0050321Y0325269D01*
X0050438Y0325290D01*
X0050556Y0325307D01*
X0050674Y0325320D01*
X0050792Y0325329D01*
X0050911Y0325334D01*
X0051030Y0325335D01*
X0051148Y0325332D01*
X0051267Y0325325D01*
X0051385Y0325314D01*
X0051503Y0325299D01*
X0051620Y0325280D01*
X0051737Y0325257D01*
X0051853Y0325231D01*
X0051967Y0325200D01*
X0052081Y0325166D01*
X0052194Y0325127D01*
X0052305Y0325085D01*
X0052414Y0325040D01*
X0052522Y0324990D01*
X0052629Y0324937D01*
X0052733Y0324881D01*
X0052836Y0324821D01*
X0052936Y0324758D01*
X0053034Y0324691D01*
X0053130Y0324621D01*
X0053224Y0324548D01*
X0053315Y0324472D01*
X0053403Y0324392D01*
X0053489Y0324310D01*
X0053572Y0324225D01*
X0053652Y0324137D01*
X0053729Y0324047D01*
X0053803Y0323954D01*
X0053874Y0323859D01*
X0053941Y0323761D01*
X0054006Y0323661D01*
X0054066Y0323559D01*
X0054124Y0323455D01*
X0054178Y0323349D01*
X0054228Y0323241D01*
X0054274Y0323132D01*
X0054317Y0323021D01*
X0054356Y0322909D01*
X0054392Y0322796D01*
X0054423Y0322681D01*
X0054451Y0322566D01*
X0054475Y0322450D01*
X0054495Y0322332D01*
X0054511Y0322215D01*
X0054523Y0322097D01*
X0054531Y0321978D01*
X0054535Y0321859D01*
X0054535Y0321741D01*
X0054531Y0321622D01*
X0054523Y0321503D01*
X0054511Y0321385D01*
X0054495Y0321268D01*
X0054475Y0321150D01*
X0054451Y0321034D01*
X0054423Y0320919D01*
X0054392Y0320804D01*
X0054356Y0320691D01*
X0054317Y0320579D01*
X0054274Y0320468D01*
X0054228Y0320359D01*
X0054178Y0320251D01*
X0054124Y0320145D01*
X0054066Y0320041D01*
X0054006Y0319939D01*
X0053941Y0319839D01*
X0053874Y0319741D01*
X0053803Y0319646D01*
X0053729Y0319553D01*
X0053652Y0319463D01*
X0053572Y0319375D01*
X0053489Y0319290D01*
X0053403Y0319208D01*
X0053315Y0319128D01*
X0053224Y0319052D01*
X0053130Y0318979D01*
X0053034Y0318909D01*
X0052936Y0318842D01*
X0052836Y0318779D01*
X0052733Y0318719D01*
X0052629Y0318663D01*
X0052522Y0318610D01*
X0052414Y0318560D01*
X0052305Y0318515D01*
X0052194Y0318473D01*
X0052081Y0318434D01*
X0051967Y0318400D01*
X0051853Y0318369D01*
X0051737Y0318343D01*
X0051620Y0318320D01*
X0051503Y0318301D01*
X0051385Y0318286D01*
X0051267Y0318275D01*
X0051148Y0318268D01*
X0051030Y0318265D01*
X0050911Y0318266D01*
X0050792Y0318271D01*
X0050674Y0318280D01*
X0050556Y0318293D01*
X0050438Y0318310D01*
X0050321Y0318331D01*
X0050205Y0318356D01*
X0050090Y0318384D01*
X0049976Y0318417D01*
X0049863Y0318453D01*
X0049751Y0318493D01*
X0049640Y0318537D01*
X0049532Y0318584D01*
X0049424Y0318636D01*
X0049319Y0318690D01*
X0049215Y0318749D01*
X0049114Y0318810D01*
X0049015Y0318875D01*
X0048917Y0318944D01*
X0048823Y0319015D01*
X0048730Y0319090D01*
X0048641Y0319168D01*
X0048553Y0319248D01*
X0048469Y0319332D01*
X0048388Y0319418D01*
X0048309Y0319508D01*
X0048234Y0319599D01*
X0048161Y0319693D01*
X0048092Y0319790D01*
X0048026Y0319889D01*
X0047964Y0319990D01*
X0047905Y0320093D01*
X0047849Y0320198D01*
X0047797Y0320305D01*
X0047748Y0320413D01*
X0047704Y0320523D01*
X0047663Y0320634D01*
X0047625Y0320747D01*
X0047592Y0320861D01*
X0047562Y0320976D01*
X0047537Y0321092D01*
X0047515Y0321209D01*
X0047497Y0321326D01*
X0047483Y0321444D01*
X0047473Y0321563D01*
X0047467Y0321681D01*
X0047465Y0321800D01*
X0085714Y0317333D02*
X0085801Y0318074D01*
X0085873Y0318817D01*
X0085928Y0319562D01*
X0085968Y0320307D01*
X0085992Y0321053D01*
X0086000Y0321800D01*
X0051000Y0286800D02*
X0050253Y0286808D01*
X0049507Y0286832D01*
X0048762Y0286872D01*
X0048017Y0286927D01*
X0047274Y0286999D01*
X0046533Y0287086D01*
X0027885Y0295519D02*
X0027329Y0296018D01*
X0026785Y0296529D01*
X0026251Y0297051D01*
X0025729Y0297585D01*
X0025218Y0298129D01*
X0024719Y0298685D01*
X0074115Y0295519D02*
X0074671Y0296018D01*
X0075215Y0296529D01*
X0075749Y0297051D01*
X0076271Y0297585D01*
X0076782Y0298129D01*
X0077281Y0298685D01*
X0016286Y0317333D02*
X0016199Y0318074D01*
X0016127Y0318817D01*
X0016072Y0319562D01*
X0016032Y0320307D01*
X0016008Y0321053D01*
X0016000Y0321800D01*
X0067191Y0290770D02*
X0067850Y0291123D01*
X0068500Y0291489D01*
X0069143Y0291869D01*
X0069777Y0292263D01*
X0070402Y0292670D01*
X0071019Y0293091D01*
X0034809Y0290770D02*
X0034150Y0291123D01*
X0033500Y0291489D01*
X0032857Y0291869D01*
X0032223Y0292263D01*
X0031598Y0292670D01*
X0030981Y0293091D01*
X0083651Y0309194D02*
X0083912Y0309893D01*
X0084159Y0310598D01*
X0084390Y0311308D01*
X0084606Y0312022D01*
X0084807Y0312741D01*
X0084993Y0313464D01*
D11*
X0081000Y0270800D02*
X0077500Y0270800D01*
X0043500Y0270800D02*
X0038500Y0270800D01*
M02*
