G75*
%MOIN*%
%OFA0B0*%
%FSLAX25Y25*%
%IPPOS*%
%LPD*%
%AMOC8*
5,1,8,0,0,1.08239X$1,22.5*
%
%ADD10C,0.07400*%
%ADD11OC8,0.06300*%
%ADD12C,0.06300*%
%ADD13OC8,0.06200*%
%ADD14C,0.14630*%
%ADD15C,0.07874*%
%ADD16R,0.07874X0.07874*%
%ADD17C,0.11000*%
%ADD18C,0.07000*%
%ADD19C,0.01600*%
D10*
X0031000Y0284300D03*
X0031000Y0324300D03*
D11*
X0071000Y0314300D03*
X0071000Y0289300D03*
D12*
X0081000Y0289300D03*
X0081000Y0314300D03*
D13*
X0056000Y0096800D03*
X0046000Y0096800D03*
D14*
X0051000Y0056800D03*
X0051000Y0036800D03*
X0051000Y0016800D03*
X0031000Y0016800D03*
X0031000Y0036800D03*
X0031000Y0056800D03*
X0071000Y0056800D03*
X0071000Y0036800D03*
X0071000Y0016800D03*
D15*
X0071000Y0076800D03*
X0056000Y0126800D03*
X0046000Y0126800D03*
X0031000Y0136800D03*
X0016000Y0126800D03*
X0031000Y0156800D03*
X0016000Y0166800D03*
X0016000Y0186800D03*
X0016000Y0206800D03*
X0031000Y0231800D03*
X0036000Y0211800D03*
X0046000Y0211800D03*
X0056000Y0211800D03*
X0071000Y0231800D03*
X0086000Y0206800D03*
X0086000Y0186800D03*
X0086000Y0166800D03*
X0071000Y0156800D03*
X0056000Y0166800D03*
X0046000Y0166800D03*
X0046000Y0181800D03*
X0056000Y0181800D03*
X0066000Y0181800D03*
X0036000Y0181800D03*
X0071000Y0136800D03*
X0086000Y0126800D03*
X0031000Y0076800D03*
X0016000Y0284300D03*
X0046000Y0284300D03*
X0056000Y0284300D03*
X0056000Y0324300D03*
X0046000Y0324300D03*
X0016000Y0324300D03*
D16*
X0066000Y0211800D03*
D17*
X0071000Y0264300D03*
X0051000Y0264300D03*
X0031000Y0264300D03*
D18*
X0046000Y0340800D02*
X0046000Y0347800D01*
X0056000Y0347800D02*
X0056000Y0340800D01*
X0087500Y0091800D02*
X0094500Y0091800D01*
X0094500Y0081800D02*
X0087500Y0081800D01*
X0014500Y0081800D02*
X0007500Y0081800D01*
X0007500Y0091800D02*
X0014500Y0091800D01*
D19*
X0006000Y0075169D02*
X0006000Y0005000D01*
X0096000Y0005000D01*
X0096000Y0075169D01*
X0095833Y0075100D01*
X0086167Y0075100D01*
X0083705Y0076120D01*
X0081820Y0078005D01*
X0080800Y0080467D01*
X0080800Y0083133D01*
X0081820Y0085595D01*
X0083705Y0087480D01*
X0084166Y0087671D01*
X0084047Y0087757D01*
X0083457Y0088347D01*
X0082967Y0089022D01*
X0082588Y0089766D01*
X0082330Y0090559D01*
X0082200Y0091383D01*
X0082200Y0091600D01*
X0090800Y0091600D01*
X0090800Y0092000D01*
X0090800Y0097100D01*
X0087083Y0097100D01*
X0086259Y0096969D01*
X0085466Y0096712D01*
X0084722Y0096333D01*
X0084047Y0095843D01*
X0083457Y0095253D01*
X0082967Y0094578D01*
X0082588Y0093834D01*
X0082330Y0093041D01*
X0082200Y0092217D01*
X0082200Y0092000D01*
X0090800Y0092000D01*
X0091200Y0092000D01*
X0091200Y0097100D01*
X0094917Y0097100D01*
X0095741Y0096969D01*
X0096000Y0096885D01*
X0096000Y0131143D01*
X0093119Y0128262D01*
X0093137Y0128220D01*
X0093137Y0125380D01*
X0092050Y0122757D01*
X0090043Y0120750D01*
X0087420Y0119663D01*
X0084580Y0119663D01*
X0081957Y0120750D01*
X0079950Y0122757D01*
X0078863Y0125380D01*
X0078863Y0128220D01*
X0079950Y0130843D01*
X0081957Y0132850D01*
X0084580Y0133937D01*
X0087420Y0133937D01*
X0087462Y0133919D01*
X0092000Y0138457D01*
X0092000Y0162707D01*
X0090043Y0160750D01*
X0087420Y0159663D01*
X0084580Y0159663D01*
X0081957Y0160750D01*
X0079950Y0162757D01*
X0078863Y0165380D01*
X0078863Y0168220D01*
X0079950Y0170843D01*
X0081957Y0172850D01*
X0084580Y0173937D01*
X0087420Y0173937D01*
X0090043Y0172850D01*
X0092000Y0170893D01*
X0092000Y0175143D01*
X0087462Y0179681D01*
X0087420Y0179663D01*
X0084580Y0179663D01*
X0081957Y0180750D01*
X0079950Y0182757D01*
X0078863Y0185380D01*
X0078863Y0188220D01*
X0079950Y0190843D01*
X0081957Y0192850D01*
X0084580Y0193937D01*
X0087420Y0193937D01*
X0090043Y0192850D01*
X0092050Y0190843D01*
X0093137Y0188220D01*
X0093137Y0185380D01*
X0093119Y0185338D01*
X0096000Y0182457D01*
X0096000Y0319300D01*
X0061000Y0354300D01*
X0047816Y0354300D01*
X0049795Y0353480D01*
X0051680Y0351595D01*
X0051871Y0351134D01*
X0051957Y0351253D01*
X0052547Y0351843D01*
X0053222Y0352333D01*
X0053966Y0352712D01*
X0054759Y0352969D01*
X0055583Y0353100D01*
X0055800Y0353100D01*
X0055800Y0344500D01*
X0056200Y0344500D01*
X0056200Y0353100D01*
X0056417Y0353100D01*
X0057241Y0352969D01*
X0058034Y0352712D01*
X0058778Y0352333D01*
X0059453Y0351843D01*
X0060043Y0351253D01*
X0060533Y0350578D01*
X0060912Y0349834D01*
X0061169Y0349041D01*
X0061300Y0348217D01*
X0061300Y0344500D01*
X0056200Y0344500D01*
X0056200Y0344100D01*
X0061300Y0344100D01*
X0061300Y0340383D01*
X0061169Y0339559D01*
X0060912Y0338766D01*
X0060533Y0338022D01*
X0060043Y0337347D01*
X0059453Y0336757D01*
X0058778Y0336267D01*
X0058034Y0335888D01*
X0057241Y0335630D01*
X0056417Y0335500D01*
X0056200Y0335500D01*
X0056200Y0344100D01*
X0055800Y0344100D01*
X0055800Y0335500D01*
X0055583Y0335500D01*
X0054759Y0335630D01*
X0053966Y0335888D01*
X0053222Y0336267D01*
X0052547Y0336757D01*
X0051957Y0337347D01*
X0051871Y0337466D01*
X0051680Y0337005D01*
X0049795Y0335120D01*
X0047333Y0334100D01*
X0046457Y0334100D01*
X0037900Y0325543D01*
X0037900Y0322927D01*
X0036850Y0320391D01*
X0034909Y0318450D01*
X0032372Y0317400D01*
X0029627Y0317400D01*
X0027091Y0318450D01*
X0025150Y0320391D01*
X0024100Y0322927D01*
X0024100Y0325672D01*
X0025150Y0328209D01*
X0027091Y0330150D01*
X0029627Y0331200D01*
X0032243Y0331200D01*
X0039655Y0338611D01*
X0039300Y0339467D01*
X0039300Y0349133D01*
X0040320Y0351595D01*
X0042205Y0353480D01*
X0044184Y0354300D01*
X0041000Y0354300D01*
X0017927Y0331227D01*
X0020043Y0330350D01*
X0022050Y0328343D01*
X0023137Y0325720D01*
X0023137Y0322880D01*
X0022050Y0320257D01*
X0020043Y0318250D01*
X0020000Y0318232D01*
X0020000Y0308300D01*
X0074343Y0308300D01*
X0076181Y0310138D01*
X0075617Y0310703D01*
X0075261Y0311561D01*
X0073050Y0309350D01*
X0071000Y0309350D01*
X0071000Y0314300D01*
X0071000Y0314300D01*
X0071000Y0319250D01*
X0073050Y0319250D01*
X0075261Y0317039D01*
X0075617Y0317897D01*
X0077403Y0319683D01*
X0079737Y0320650D01*
X0082263Y0320650D01*
X0084597Y0319683D01*
X0086383Y0317897D01*
X0087350Y0315563D01*
X0087350Y0313037D01*
X0086383Y0310703D01*
X0085000Y0309320D01*
X0085000Y0308504D01*
X0084391Y0307034D01*
X0079391Y0302034D01*
X0078266Y0300909D01*
X0076796Y0300300D01*
X0060000Y0300300D01*
X0060000Y0290368D01*
X0060043Y0290350D01*
X0062050Y0288343D01*
X0063137Y0285720D01*
X0063137Y0282880D01*
X0062050Y0280257D01*
X0060043Y0278250D01*
X0057420Y0277163D01*
X0054580Y0277163D01*
X0051957Y0278250D01*
X0051000Y0279207D01*
X0050043Y0278250D01*
X0047420Y0277163D01*
X0044580Y0277163D01*
X0041957Y0278250D01*
X0039950Y0280257D01*
X0038863Y0282880D01*
X0038863Y0285720D01*
X0039950Y0288343D01*
X0041957Y0290350D01*
X0044580Y0291437D01*
X0047420Y0291437D01*
X0050043Y0290350D01*
X0051000Y0289393D01*
X0051957Y0290350D01*
X0052000Y0290368D01*
X0052000Y0300300D01*
X0021142Y0300300D01*
X0021142Y0299815D01*
X0029757Y0291200D01*
X0032372Y0291200D01*
X0034909Y0290150D01*
X0036850Y0288209D01*
X0037900Y0285672D01*
X0037900Y0282927D01*
X0036850Y0280391D01*
X0034909Y0278450D01*
X0032372Y0277400D01*
X0029627Y0277400D01*
X0027091Y0278450D01*
X0025150Y0280391D01*
X0024100Y0282927D01*
X0024100Y0285543D01*
X0022581Y0287062D01*
X0023137Y0285720D01*
X0023137Y0282880D01*
X0022050Y0280257D01*
X0020043Y0278250D01*
X0017420Y0277163D01*
X0014580Y0277163D01*
X0011957Y0278250D01*
X0009950Y0280257D01*
X0008863Y0282880D01*
X0008863Y0285720D01*
X0009950Y0288343D01*
X0011957Y0290350D01*
X0014580Y0291437D01*
X0017420Y0291437D01*
X0018762Y0290881D01*
X0013751Y0295892D01*
X0013142Y0297363D01*
X0013142Y0302643D01*
X0012609Y0303176D01*
X0012000Y0304646D01*
X0012000Y0318232D01*
X0011957Y0318250D01*
X0009950Y0320257D01*
X0009073Y0322373D01*
X0006000Y0319300D01*
X0006000Y0096885D01*
X0006259Y0096969D01*
X0007083Y0097100D01*
X0010800Y0097100D01*
X0010800Y0092000D01*
X0011200Y0092000D01*
X0011200Y0097100D01*
X0014917Y0097100D01*
X0015741Y0096969D01*
X0016534Y0096712D01*
X0017278Y0096333D01*
X0017953Y0095843D01*
X0018543Y0095253D01*
X0019033Y0094578D01*
X0019412Y0093834D01*
X0019669Y0093041D01*
X0019800Y0092217D01*
X0019800Y0092000D01*
X0011200Y0092000D01*
X0011200Y0091600D01*
X0019800Y0091600D01*
X0019800Y0091383D01*
X0019669Y0090559D01*
X0019412Y0089766D01*
X0019033Y0089022D01*
X0018543Y0088347D01*
X0017953Y0087757D01*
X0017834Y0087671D01*
X0018295Y0087480D01*
X0020180Y0085595D01*
X0021200Y0083133D01*
X0021200Y0080467D01*
X0020180Y0078005D01*
X0018295Y0076120D01*
X0015833Y0075100D01*
X0006167Y0075100D01*
X0006000Y0075169D01*
X0006000Y0073733D02*
X0017471Y0073733D01*
X0017609Y0074066D02*
X0017000Y0072596D01*
X0017000Y0041004D01*
X0017609Y0039534D01*
X0018734Y0038409D01*
X0020485Y0036658D01*
X0020485Y0035416D01*
X0021202Y0032741D01*
X0022586Y0030344D01*
X0024544Y0028386D01*
X0026941Y0027002D01*
X0029616Y0026285D01*
X0032384Y0026285D01*
X0035059Y0027002D01*
X0037456Y0028386D01*
X0039414Y0030344D01*
X0040798Y0032741D01*
X0041000Y0033494D01*
X0041202Y0032741D01*
X0042586Y0030344D01*
X0044544Y0028386D01*
X0046941Y0027002D01*
X0047694Y0026800D01*
X0046941Y0026598D01*
X0044544Y0025214D01*
X0042586Y0023256D01*
X0041202Y0020859D01*
X0040485Y0018184D01*
X0040485Y0015416D01*
X0041202Y0012741D01*
X0042586Y0010344D01*
X0044544Y0008386D01*
X0046941Y0007002D01*
X0049616Y0006285D01*
X0052384Y0006285D01*
X0055059Y0007002D01*
X0057456Y0008386D01*
X0059414Y0010344D01*
X0060798Y0012741D01*
X0061000Y0013494D01*
X0061202Y0012741D01*
X0062586Y0010344D01*
X0064544Y0008386D01*
X0066941Y0007002D01*
X0069616Y0006285D01*
X0072384Y0006285D01*
X0075059Y0007002D01*
X0077456Y0008386D01*
X0079414Y0010344D01*
X0080798Y0012741D01*
X0081515Y0015416D01*
X0081515Y0018184D01*
X0080798Y0020859D01*
X0079414Y0023256D01*
X0077456Y0025214D01*
X0075059Y0026598D01*
X0074306Y0026800D01*
X0075059Y0027002D01*
X0077456Y0028386D01*
X0079414Y0030344D01*
X0080798Y0032741D01*
X0081515Y0035416D01*
X0081515Y0038184D01*
X0080798Y0040859D01*
X0079414Y0043256D01*
X0077456Y0045214D01*
X0075059Y0046598D01*
X0072384Y0047315D01*
X0069616Y0047315D01*
X0066941Y0046598D01*
X0065000Y0045478D01*
X0065000Y0049915D01*
X0065925Y0049205D01*
X0066960Y0048607D01*
X0068064Y0048150D01*
X0069218Y0047841D01*
X0070200Y0047712D01*
X0070200Y0056000D01*
X0071800Y0056000D01*
X0071800Y0057600D01*
X0070200Y0057600D01*
X0070200Y0065888D01*
X0069218Y0065759D01*
X0068064Y0065450D01*
X0066960Y0064992D01*
X0065925Y0064395D01*
X0065000Y0063685D01*
X0065000Y0067596D01*
X0064391Y0069066D01*
X0060000Y0073457D01*
X0060000Y0091890D01*
X0062300Y0094190D01*
X0062300Y0099410D01*
X0058610Y0103100D01*
X0053390Y0103100D01*
X0051000Y0100710D01*
X0048610Y0103100D01*
X0043390Y0103100D01*
X0039700Y0099410D01*
X0039700Y0094190D01*
X0043390Y0090500D01*
X0048610Y0090500D01*
X0051000Y0092890D01*
X0052000Y0091890D01*
X0052000Y0071004D01*
X0052609Y0069534D01*
X0053734Y0068409D01*
X0056209Y0065934D01*
X0055059Y0066598D01*
X0052384Y0067315D01*
X0049616Y0067315D01*
X0046941Y0066598D01*
X0044544Y0065214D01*
X0042586Y0063256D01*
X0041202Y0060859D01*
X0041000Y0060106D01*
X0040798Y0060859D01*
X0039414Y0063256D01*
X0037456Y0065214D01*
X0035059Y0066598D01*
X0032384Y0067315D01*
X0029616Y0067315D01*
X0026941Y0066598D01*
X0025000Y0065477D01*
X0025000Y0070143D01*
X0026282Y0071425D01*
X0026957Y0070750D01*
X0029580Y0069663D01*
X0032420Y0069663D01*
X0035043Y0070750D01*
X0037050Y0072757D01*
X0038137Y0075380D01*
X0038137Y0078220D01*
X0037050Y0080843D01*
X0035043Y0082850D01*
X0032420Y0083937D01*
X0029580Y0083937D01*
X0026957Y0082850D01*
X0024950Y0080843D01*
X0024875Y0080664D01*
X0023734Y0080191D01*
X0022609Y0079066D01*
X0017609Y0074066D01*
X0016392Y0075332D02*
X0018875Y0075332D01*
X0019105Y0076930D02*
X0020473Y0076930D01*
X0020397Y0078529D02*
X0022072Y0078529D01*
X0021059Y0080127D02*
X0023670Y0080127D01*
X0025832Y0081726D02*
X0021200Y0081726D01*
X0021121Y0083324D02*
X0028101Y0083324D01*
X0033899Y0083324D02*
X0052000Y0083324D01*
X0052000Y0081726D02*
X0036168Y0081726D01*
X0037347Y0080127D02*
X0052000Y0080127D01*
X0052000Y0078529D02*
X0038009Y0078529D01*
X0038137Y0076930D02*
X0052000Y0076930D01*
X0052000Y0075332D02*
X0038117Y0075332D01*
X0037455Y0073733D02*
X0052000Y0073733D01*
X0052000Y0072134D02*
X0036428Y0072134D01*
X0034527Y0070536D02*
X0052194Y0070536D01*
X0053206Y0068937D02*
X0025000Y0068937D01*
X0025000Y0067339D02*
X0054804Y0067339D01*
X0056000Y0071800D02*
X0056000Y0096800D01*
X0052000Y0091317D02*
X0049426Y0091317D01*
X0052000Y0089718D02*
X0019388Y0089718D01*
X0019789Y0091317D02*
X0042574Y0091317D01*
X0040975Y0092915D02*
X0019689Y0092915D01*
X0019066Y0094514D02*
X0039700Y0094514D01*
X0039700Y0096112D02*
X0017582Y0096112D01*
X0011200Y0096112D02*
X0010800Y0096112D01*
X0010800Y0094514D02*
X0011200Y0094514D01*
X0011200Y0092915D02*
X0010800Y0092915D01*
X0006000Y0097711D02*
X0039700Y0097711D01*
X0039700Y0099309D02*
X0006000Y0099309D01*
X0006000Y0100908D02*
X0041198Y0100908D01*
X0042797Y0102506D02*
X0006000Y0102506D01*
X0006000Y0104105D02*
X0096000Y0104105D01*
X0096000Y0105703D02*
X0006000Y0105703D01*
X0006000Y0107302D02*
X0096000Y0107302D01*
X0096000Y0108900D02*
X0006000Y0108900D01*
X0006000Y0110499D02*
X0096000Y0110499D01*
X0096000Y0112097D02*
X0006000Y0112097D01*
X0006000Y0113696D02*
X0096000Y0113696D01*
X0096000Y0115294D02*
X0006000Y0115294D01*
X0006000Y0116893D02*
X0096000Y0116893D01*
X0096000Y0118491D02*
X0006000Y0118491D01*
X0006000Y0120090D02*
X0043550Y0120090D01*
X0044580Y0119663D02*
X0047420Y0119663D01*
X0050043Y0120750D01*
X0051000Y0121707D01*
X0051957Y0120750D01*
X0054580Y0119663D01*
X0057420Y0119663D01*
X0060043Y0120750D01*
X0062050Y0122757D01*
X0063137Y0125380D01*
X0063137Y0128220D01*
X0062050Y0130843D01*
X0060043Y0132850D01*
X0057420Y0133937D01*
X0054580Y0133937D01*
X0051957Y0132850D01*
X0051000Y0131893D01*
X0050043Y0132850D01*
X0047420Y0133937D01*
X0044580Y0133937D01*
X0041957Y0132850D01*
X0039950Y0130843D01*
X0038863Y0128220D01*
X0038863Y0125380D01*
X0039950Y0122757D01*
X0041957Y0120750D01*
X0044580Y0119663D01*
X0048450Y0120090D02*
X0053550Y0120090D01*
X0051018Y0121688D02*
X0050982Y0121688D01*
X0058450Y0120090D02*
X0083550Y0120090D01*
X0081018Y0121688D02*
X0060982Y0121688D01*
X0062270Y0123287D02*
X0079730Y0123287D01*
X0079068Y0124885D02*
X0062932Y0124885D01*
X0063137Y0126484D02*
X0078863Y0126484D01*
X0078863Y0128082D02*
X0063137Y0128082D01*
X0062532Y0129681D02*
X0079468Y0129681D01*
X0080386Y0131279D02*
X0072575Y0131279D01*
X0072343Y0131204D02*
X0073202Y0131483D01*
X0074007Y0131893D01*
X0074737Y0132424D01*
X0075376Y0133063D01*
X0075907Y0133793D01*
X0076317Y0134598D01*
X0076596Y0135457D01*
X0076737Y0136348D01*
X0076737Y0136616D01*
X0071184Y0136616D01*
X0071184Y0131063D01*
X0071452Y0131063D01*
X0072343Y0131204D01*
X0071184Y0131279D02*
X0070816Y0131279D01*
X0070816Y0131063D02*
X0070816Y0136616D01*
X0065263Y0136616D01*
X0065263Y0136348D01*
X0065404Y0135457D01*
X0065683Y0134598D01*
X0066093Y0133793D01*
X0066624Y0133063D01*
X0067263Y0132424D01*
X0067993Y0131893D01*
X0068798Y0131483D01*
X0069657Y0131204D01*
X0070548Y0131063D01*
X0070816Y0131063D01*
X0069425Y0131279D02*
X0061614Y0131279D01*
X0059976Y0132878D02*
X0066809Y0132878D01*
X0065745Y0134476D02*
X0037763Y0134476D01*
X0038137Y0135380D02*
X0037050Y0132757D01*
X0035043Y0130750D01*
X0032420Y0129663D01*
X0029580Y0129663D01*
X0026957Y0130750D01*
X0024950Y0132757D01*
X0023863Y0135380D01*
X0023863Y0138220D01*
X0024950Y0140843D01*
X0026957Y0142850D01*
X0029580Y0143937D01*
X0032420Y0143937D01*
X0035043Y0142850D01*
X0037050Y0140843D01*
X0038137Y0138220D01*
X0038137Y0135380D01*
X0038137Y0136075D02*
X0065306Y0136075D01*
X0065263Y0136984D02*
X0070816Y0136984D01*
X0070816Y0136616D01*
X0071184Y0136616D01*
X0071184Y0136984D01*
X0070816Y0136984D01*
X0070816Y0142537D01*
X0070548Y0142537D01*
X0069657Y0142396D01*
X0068798Y0142117D01*
X0067993Y0141707D01*
X0067263Y0141176D01*
X0066624Y0140537D01*
X0066093Y0139807D01*
X0065683Y0139002D01*
X0065404Y0138143D01*
X0065263Y0137252D01*
X0065263Y0136984D01*
X0065330Y0137673D02*
X0038137Y0137673D01*
X0037701Y0139272D02*
X0065821Y0139272D01*
X0066957Y0140870D02*
X0037023Y0140870D01*
X0035424Y0142469D02*
X0070119Y0142469D01*
X0070816Y0142469D02*
X0071184Y0142469D01*
X0071184Y0142537D02*
X0071184Y0136984D01*
X0076737Y0136984D01*
X0076737Y0137252D01*
X0076596Y0138143D01*
X0076317Y0139002D01*
X0075907Y0139807D01*
X0075376Y0140537D01*
X0074737Y0141176D01*
X0074007Y0141707D01*
X0073202Y0142117D01*
X0072343Y0142396D01*
X0071452Y0142537D01*
X0071184Y0142537D01*
X0071881Y0142469D02*
X0092000Y0142469D01*
X0092000Y0144068D02*
X0006000Y0144068D01*
X0006000Y0145666D02*
X0092000Y0145666D01*
X0092000Y0147265D02*
X0006000Y0147265D01*
X0006000Y0148863D02*
X0092000Y0148863D01*
X0092000Y0150462D02*
X0074348Y0150462D01*
X0075043Y0150750D02*
X0077050Y0152757D01*
X0078137Y0155380D01*
X0078137Y0158220D01*
X0077050Y0160843D01*
X0075043Y0162850D01*
X0072420Y0163937D01*
X0069580Y0163937D01*
X0066957Y0162850D01*
X0064950Y0160843D01*
X0063863Y0158220D01*
X0063863Y0155380D01*
X0064950Y0152757D01*
X0066957Y0150750D01*
X0069580Y0149663D01*
X0072420Y0149663D01*
X0075043Y0150750D01*
X0076353Y0152060D02*
X0092000Y0152060D01*
X0092000Y0153659D02*
X0077424Y0153659D01*
X0078086Y0155257D02*
X0092000Y0155257D01*
X0092000Y0156856D02*
X0078137Y0156856D01*
X0078040Y0158454D02*
X0092000Y0158454D01*
X0092000Y0160053D02*
X0088360Y0160053D01*
X0090944Y0161651D02*
X0092000Y0161651D01*
X0092000Y0171242D02*
X0091651Y0171242D01*
X0092000Y0172841D02*
X0090053Y0172841D01*
X0092000Y0174439D02*
X0030000Y0174439D01*
X0030000Y0172841D02*
X0051947Y0172841D01*
X0051957Y0172850D02*
X0050010Y0170903D01*
X0049737Y0171176D01*
X0049007Y0171707D01*
X0048202Y0172117D01*
X0047343Y0172396D01*
X0046452Y0172537D01*
X0046184Y0172537D01*
X0046184Y0166984D01*
X0045816Y0166984D01*
X0045816Y0166616D01*
X0040263Y0166616D01*
X0040263Y0166348D01*
X0040404Y0165457D01*
X0040683Y0164598D01*
X0041093Y0163793D01*
X0041624Y0163063D01*
X0042263Y0162424D01*
X0042993Y0161893D01*
X0043798Y0161483D01*
X0044657Y0161204D01*
X0045548Y0161063D01*
X0045816Y0161063D01*
X0045816Y0166616D01*
X0046184Y0166616D01*
X0046184Y0161063D01*
X0046452Y0161063D01*
X0047343Y0161204D01*
X0048202Y0161483D01*
X0049007Y0161893D01*
X0049737Y0162424D01*
X0050010Y0162697D01*
X0051957Y0160750D01*
X0054580Y0159663D01*
X0057420Y0159663D01*
X0060043Y0160750D01*
X0062050Y0162757D01*
X0063137Y0165380D01*
X0063137Y0168220D01*
X0062050Y0170843D01*
X0060043Y0172850D01*
X0057420Y0173937D01*
X0054580Y0173937D01*
X0051957Y0172850D01*
X0050349Y0171242D02*
X0049646Y0171242D01*
X0046184Y0171242D02*
X0045816Y0171242D01*
X0045816Y0172537D02*
X0045548Y0172537D01*
X0044657Y0172396D01*
X0043798Y0172117D01*
X0042993Y0171707D01*
X0042263Y0171176D01*
X0041624Y0170537D01*
X0041093Y0169807D01*
X0040683Y0169002D01*
X0040404Y0168143D01*
X0040263Y0167252D01*
X0040263Y0166984D01*
X0045816Y0166984D01*
X0045816Y0172537D01*
X0044580Y0174663D02*
X0041957Y0175750D01*
X0041000Y0176707D01*
X0040043Y0175750D01*
X0037420Y0174663D01*
X0034580Y0174663D01*
X0031957Y0175750D01*
X0030000Y0177707D01*
X0030000Y0163937D01*
X0032420Y0163937D01*
X0035043Y0162850D01*
X0037050Y0160843D01*
X0038137Y0158220D01*
X0038137Y0155380D01*
X0037050Y0152757D01*
X0035043Y0150750D01*
X0032420Y0149663D01*
X0029580Y0149663D01*
X0026957Y0150750D01*
X0024950Y0152757D01*
X0023863Y0155380D01*
X0023863Y0158220D01*
X0023881Y0158262D01*
X0023734Y0158409D01*
X0022609Y0159534D01*
X0022000Y0161004D01*
X0022000Y0162707D01*
X0020043Y0160750D01*
X0017420Y0159663D01*
X0014580Y0159663D01*
X0011957Y0160750D01*
X0009950Y0162757D01*
X0008863Y0165380D01*
X0008863Y0168220D01*
X0009950Y0170843D01*
X0011957Y0172850D01*
X0014580Y0173937D01*
X0017420Y0173937D01*
X0020043Y0172850D01*
X0022000Y0170893D01*
X0022000Y0182707D01*
X0020043Y0180750D01*
X0017420Y0179663D01*
X0014580Y0179663D01*
X0011957Y0180750D01*
X0009950Y0182757D01*
X0008863Y0185380D01*
X0008863Y0188220D01*
X0009950Y0190843D01*
X0011957Y0192850D01*
X0014580Y0193937D01*
X0017420Y0193937D01*
X0020043Y0192850D01*
X0022000Y0190893D01*
X0022000Y0192596D01*
X0022609Y0194066D01*
X0034735Y0206192D01*
X0034657Y0206204D01*
X0033798Y0206483D01*
X0032993Y0206893D01*
X0032263Y0207424D01*
X0031624Y0208063D01*
X0031093Y0208793D01*
X0030683Y0209598D01*
X0030404Y0210457D01*
X0030263Y0211348D01*
X0030263Y0211616D01*
X0035816Y0211616D01*
X0035816Y0211984D01*
X0030263Y0211984D01*
X0030263Y0212252D01*
X0030404Y0213143D01*
X0030683Y0214002D01*
X0031093Y0214807D01*
X0031624Y0215537D01*
X0032263Y0216176D01*
X0032993Y0216707D01*
X0033798Y0217117D01*
X0034657Y0217396D01*
X0035548Y0217537D01*
X0035816Y0217537D01*
X0035816Y0211984D01*
X0036184Y0211984D01*
X0036184Y0217537D01*
X0036452Y0217537D01*
X0037343Y0217396D01*
X0038202Y0217117D01*
X0039007Y0216707D01*
X0039737Y0216176D01*
X0040010Y0215903D01*
X0041957Y0217850D01*
X0044580Y0218937D01*
X0047420Y0218937D01*
X0050043Y0217850D01*
X0051000Y0216893D01*
X0051957Y0217850D01*
X0054580Y0218937D01*
X0057420Y0218937D01*
X0058762Y0218381D01*
X0047609Y0229534D01*
X0047000Y0231004D01*
X0047000Y0256540D01*
X0046072Y0256924D01*
X0043624Y0259372D01*
X0042300Y0262569D01*
X0042300Y0266031D01*
X0043624Y0269228D01*
X0046072Y0271675D01*
X0049269Y0273000D01*
X0052731Y0273000D01*
X0055928Y0271675D01*
X0058375Y0269228D01*
X0059700Y0266031D01*
X0059700Y0262569D01*
X0058375Y0259372D01*
X0055928Y0256924D01*
X0055000Y0256540D01*
X0055000Y0233457D01*
X0068266Y0220191D01*
X0069391Y0219066D01*
X0069444Y0218937D01*
X0070574Y0218937D01*
X0071750Y0218450D01*
X0072650Y0217550D01*
X0073137Y0216374D01*
X0073137Y0207226D01*
X0072650Y0206050D01*
X0071750Y0205150D01*
X0070574Y0204663D01*
X0061426Y0204663D01*
X0060250Y0205150D01*
X0059766Y0205635D01*
X0057420Y0204663D01*
X0054580Y0204663D01*
X0051957Y0205750D01*
X0051000Y0206707D01*
X0050043Y0205750D01*
X0047420Y0204663D01*
X0044580Y0204663D01*
X0044538Y0204681D01*
X0030000Y0190143D01*
X0030000Y0185893D01*
X0031957Y0187850D01*
X0034580Y0188937D01*
X0037420Y0188937D01*
X0040043Y0187850D01*
X0041000Y0186893D01*
X0041957Y0187850D01*
X0044580Y0188937D01*
X0047420Y0188937D01*
X0050043Y0187850D01*
X0051000Y0186893D01*
X0051957Y0187850D01*
X0054580Y0188937D01*
X0057420Y0188937D01*
X0060043Y0187850D01*
X0061000Y0186893D01*
X0061957Y0187850D01*
X0064580Y0188937D01*
X0067420Y0188937D01*
X0070043Y0187850D01*
X0072050Y0185843D01*
X0073137Y0183220D01*
X0073137Y0180380D01*
X0072050Y0177757D01*
X0070043Y0175750D01*
X0067420Y0174663D01*
X0064580Y0174663D01*
X0061957Y0175750D01*
X0061000Y0176707D01*
X0060043Y0175750D01*
X0057420Y0174663D01*
X0054580Y0174663D01*
X0051957Y0175750D01*
X0051000Y0176707D01*
X0050043Y0175750D01*
X0047420Y0174663D01*
X0044580Y0174663D01*
X0041669Y0176038D02*
X0040331Y0176038D01*
X0042354Y0171242D02*
X0030000Y0171242D01*
X0030000Y0169644D02*
X0041010Y0169644D01*
X0040389Y0168045D02*
X0030000Y0168045D01*
X0030000Y0166447D02*
X0040263Y0166447D01*
X0040602Y0164848D02*
X0030000Y0164848D01*
X0034079Y0163250D02*
X0041488Y0163250D01*
X0043468Y0161651D02*
X0036242Y0161651D01*
X0037378Y0160053D02*
X0053640Y0160053D01*
X0051056Y0161651D02*
X0048532Y0161651D01*
X0046184Y0161651D02*
X0045816Y0161651D01*
X0045816Y0163250D02*
X0046184Y0163250D01*
X0046184Y0164848D02*
X0045816Y0164848D01*
X0045816Y0166447D02*
X0046184Y0166447D01*
X0046184Y0168045D02*
X0045816Y0168045D01*
X0045816Y0169644D02*
X0046184Y0169644D01*
X0050331Y0176038D02*
X0051669Y0176038D01*
X0060331Y0176038D02*
X0061669Y0176038D01*
X0060053Y0172841D02*
X0081947Y0172841D01*
X0080349Y0171242D02*
X0061651Y0171242D01*
X0062547Y0169644D02*
X0079453Y0169644D01*
X0078863Y0168045D02*
X0063137Y0168045D01*
X0063137Y0166447D02*
X0078863Y0166447D01*
X0079083Y0164848D02*
X0062917Y0164848D01*
X0062254Y0163250D02*
X0067921Y0163250D01*
X0065758Y0161651D02*
X0060944Y0161651D01*
X0058360Y0160053D02*
X0064622Y0160053D01*
X0063960Y0158454D02*
X0038040Y0158454D01*
X0038137Y0156856D02*
X0063863Y0156856D01*
X0063914Y0155257D02*
X0038086Y0155257D01*
X0037424Y0153659D02*
X0064576Y0153659D01*
X0065647Y0152060D02*
X0036353Y0152060D01*
X0034348Y0150462D02*
X0067652Y0150462D01*
X0070816Y0140870D02*
X0071184Y0140870D01*
X0071184Y0139272D02*
X0070816Y0139272D01*
X0070816Y0137673D02*
X0071184Y0137673D01*
X0071184Y0136075D02*
X0070816Y0136075D01*
X0070816Y0134476D02*
X0071184Y0134476D01*
X0071184Y0132878D02*
X0070816Y0132878D01*
X0075191Y0132878D02*
X0082024Y0132878D01*
X0086000Y0126800D02*
X0096000Y0136800D01*
X0096000Y0176800D01*
X0086000Y0186800D01*
X0081873Y0180833D02*
X0073137Y0180833D01*
X0073137Y0182432D02*
X0080275Y0182432D01*
X0079422Y0184030D02*
X0072801Y0184030D01*
X0072139Y0185629D02*
X0078863Y0185629D01*
X0078863Y0187227D02*
X0070666Y0187227D01*
X0067688Y0188826D02*
X0079114Y0188826D01*
X0079776Y0190424D02*
X0030281Y0190424D01*
X0030000Y0188826D02*
X0034312Y0188826D01*
X0037688Y0188826D02*
X0044312Y0188826D01*
X0047688Y0188826D02*
X0054312Y0188826D01*
X0057688Y0188826D02*
X0064312Y0188826D01*
X0061334Y0187227D02*
X0060666Y0187227D01*
X0051334Y0187227D02*
X0050666Y0187227D01*
X0041334Y0187227D02*
X0040666Y0187227D01*
X0033478Y0193621D02*
X0083818Y0193621D01*
X0081130Y0192023D02*
X0031880Y0192023D01*
X0035077Y0195220D02*
X0096000Y0195220D01*
X0096000Y0196818D02*
X0036675Y0196818D01*
X0038274Y0198417D02*
X0096000Y0198417D01*
X0096000Y0200015D02*
X0088270Y0200015D01*
X0087420Y0199663D02*
X0090043Y0200750D01*
X0092050Y0202757D01*
X0093137Y0205380D01*
X0093137Y0208220D01*
X0092050Y0210843D01*
X0090043Y0212850D01*
X0087420Y0213937D01*
X0084580Y0213937D01*
X0081957Y0212850D01*
X0079950Y0210843D01*
X0078863Y0208220D01*
X0078863Y0205380D01*
X0079950Y0202757D01*
X0081957Y0200750D01*
X0084580Y0199663D01*
X0087420Y0199663D01*
X0090907Y0201614D02*
X0096000Y0201614D01*
X0096000Y0203212D02*
X0092239Y0203212D01*
X0092901Y0204811D02*
X0096000Y0204811D01*
X0096000Y0206409D02*
X0093137Y0206409D01*
X0093137Y0208008D02*
X0096000Y0208008D01*
X0096000Y0209606D02*
X0092563Y0209606D01*
X0091688Y0211205D02*
X0096000Y0211205D01*
X0096000Y0212803D02*
X0090090Y0212803D01*
X0096000Y0214402D02*
X0073137Y0214402D01*
X0073137Y0216001D02*
X0096000Y0216001D01*
X0096000Y0217599D02*
X0072600Y0217599D01*
X0069259Y0219198D02*
X0096000Y0219198D01*
X0096000Y0220796D02*
X0067661Y0220796D01*
X0066062Y0222395D02*
X0096000Y0222395D01*
X0096000Y0223993D02*
X0064464Y0223993D01*
X0062865Y0225592D02*
X0067339Y0225592D01*
X0066957Y0225750D02*
X0069580Y0224663D01*
X0072420Y0224663D01*
X0075043Y0225750D01*
X0077050Y0227757D01*
X0078137Y0230380D01*
X0078137Y0233220D01*
X0077050Y0235843D01*
X0075043Y0237850D01*
X0072420Y0238937D01*
X0069580Y0238937D01*
X0066957Y0237850D01*
X0064950Y0235843D01*
X0063863Y0233220D01*
X0063863Y0230380D01*
X0064950Y0227757D01*
X0066957Y0225750D01*
X0065517Y0227190D02*
X0061267Y0227190D01*
X0059668Y0228789D02*
X0064522Y0228789D01*
X0063863Y0230387D02*
X0058070Y0230387D01*
X0056471Y0231986D02*
X0063863Y0231986D01*
X0064014Y0233584D02*
X0055000Y0233584D01*
X0055000Y0235183D02*
X0064676Y0235183D01*
X0065888Y0236781D02*
X0055000Y0236781D01*
X0055000Y0238380D02*
X0068235Y0238380D01*
X0073765Y0238380D02*
X0096000Y0238380D01*
X0096000Y0239978D02*
X0055000Y0239978D01*
X0055000Y0241577D02*
X0096000Y0241577D01*
X0096000Y0243175D02*
X0055000Y0243175D01*
X0055000Y0244774D02*
X0096000Y0244774D01*
X0096000Y0246372D02*
X0055000Y0246372D01*
X0055000Y0247971D02*
X0096000Y0247971D01*
X0096000Y0249569D02*
X0055000Y0249569D01*
X0055000Y0251168D02*
X0096000Y0251168D01*
X0096000Y0252766D02*
X0055000Y0252766D01*
X0055000Y0254365D02*
X0096000Y0254365D01*
X0096000Y0255963D02*
X0073608Y0255963D01*
X0072731Y0255600D02*
X0075928Y0256924D01*
X0078375Y0259372D01*
X0079700Y0262569D01*
X0079700Y0266031D01*
X0078375Y0269228D01*
X0075928Y0271675D01*
X0072731Y0273000D01*
X0069269Y0273000D01*
X0066072Y0271675D01*
X0063624Y0269228D01*
X0062300Y0266031D01*
X0062300Y0262569D01*
X0063624Y0259372D01*
X0066072Y0256924D01*
X0069269Y0255600D01*
X0072731Y0255600D01*
X0068392Y0255963D02*
X0055000Y0255963D01*
X0056565Y0257562D02*
X0065435Y0257562D01*
X0063836Y0259160D02*
X0058164Y0259160D01*
X0058950Y0260759D02*
X0063050Y0260759D01*
X0062388Y0262357D02*
X0059612Y0262357D01*
X0059700Y0263956D02*
X0062300Y0263956D01*
X0062300Y0265554D02*
X0059700Y0265554D01*
X0059235Y0267153D02*
X0062765Y0267153D01*
X0063427Y0268751D02*
X0058573Y0268751D01*
X0057254Y0270350D02*
X0064746Y0270350D01*
X0066731Y0271948D02*
X0055269Y0271948D01*
X0051864Y0278342D02*
X0050136Y0278342D01*
X0046731Y0271948D02*
X0035269Y0271948D01*
X0035928Y0271675D02*
X0032731Y0273000D01*
X0029269Y0273000D01*
X0026072Y0271675D01*
X0023624Y0269228D01*
X0022300Y0266031D01*
X0022300Y0262569D01*
X0023624Y0259372D01*
X0026072Y0256924D01*
X0029269Y0255600D01*
X0032731Y0255600D01*
X0035928Y0256924D01*
X0038375Y0259372D01*
X0039700Y0262569D01*
X0039700Y0266031D01*
X0038375Y0269228D01*
X0035928Y0271675D01*
X0037254Y0270350D02*
X0044746Y0270350D01*
X0043427Y0268751D02*
X0038573Y0268751D01*
X0039235Y0267153D02*
X0042765Y0267153D01*
X0042300Y0265554D02*
X0039700Y0265554D01*
X0039700Y0263956D02*
X0042300Y0263956D01*
X0042388Y0262357D02*
X0039612Y0262357D01*
X0038950Y0260759D02*
X0043050Y0260759D01*
X0043836Y0259160D02*
X0038164Y0259160D01*
X0036565Y0257562D02*
X0045435Y0257562D01*
X0047000Y0255963D02*
X0033608Y0255963D01*
X0028392Y0255963D02*
X0006000Y0255963D01*
X0006000Y0254365D02*
X0047000Y0254365D01*
X0047000Y0252766D02*
X0006000Y0252766D01*
X0006000Y0251168D02*
X0047000Y0251168D01*
X0047000Y0249569D02*
X0006000Y0249569D01*
X0006000Y0247971D02*
X0047000Y0247971D01*
X0047000Y0246372D02*
X0006000Y0246372D01*
X0006000Y0244774D02*
X0047000Y0244774D01*
X0047000Y0243175D02*
X0006000Y0243175D01*
X0006000Y0241577D02*
X0047000Y0241577D01*
X0047000Y0239978D02*
X0006000Y0239978D01*
X0006000Y0238380D02*
X0028235Y0238380D01*
X0026957Y0237850D02*
X0029580Y0238937D01*
X0032420Y0238937D01*
X0035043Y0237850D01*
X0037050Y0235843D01*
X0038137Y0233220D01*
X0038137Y0230380D01*
X0037050Y0227757D01*
X0035043Y0225750D01*
X0032420Y0224663D01*
X0029580Y0224663D01*
X0026957Y0225750D01*
X0024950Y0227757D01*
X0023863Y0230380D01*
X0023863Y0233220D01*
X0024950Y0235843D01*
X0026957Y0237850D01*
X0025888Y0236781D02*
X0006000Y0236781D01*
X0006000Y0235183D02*
X0024676Y0235183D01*
X0024014Y0233584D02*
X0006000Y0233584D01*
X0006000Y0231986D02*
X0023863Y0231986D01*
X0023863Y0230387D02*
X0006000Y0230387D01*
X0006000Y0228789D02*
X0024522Y0228789D01*
X0025517Y0227190D02*
X0006000Y0227190D01*
X0006000Y0225592D02*
X0027339Y0225592D01*
X0034661Y0225592D02*
X0051552Y0225592D01*
X0053150Y0223993D02*
X0006000Y0223993D01*
X0006000Y0222395D02*
X0054749Y0222395D01*
X0056347Y0220796D02*
X0006000Y0220796D01*
X0006000Y0219198D02*
X0057946Y0219198D01*
X0051706Y0217599D02*
X0050294Y0217599D01*
X0046000Y0211800D02*
X0026000Y0191800D01*
X0026000Y0161800D01*
X0031000Y0156800D01*
X0025647Y0152060D02*
X0006000Y0152060D01*
X0006000Y0150462D02*
X0027652Y0150462D01*
X0024576Y0153659D02*
X0006000Y0153659D01*
X0006000Y0155257D02*
X0023914Y0155257D01*
X0023863Y0156856D02*
X0006000Y0156856D01*
X0006000Y0158454D02*
X0023689Y0158454D01*
X0022394Y0160053D02*
X0018360Y0160053D01*
X0020944Y0161651D02*
X0022000Y0161651D01*
X0013640Y0160053D02*
X0006000Y0160053D01*
X0006000Y0161651D02*
X0011056Y0161651D01*
X0009746Y0163250D02*
X0006000Y0163250D01*
X0006000Y0164848D02*
X0009083Y0164848D01*
X0008863Y0166447D02*
X0006000Y0166447D01*
X0006000Y0168045D02*
X0008863Y0168045D01*
X0009453Y0169644D02*
X0006000Y0169644D01*
X0006000Y0171242D02*
X0010349Y0171242D01*
X0011947Y0172841D02*
X0006000Y0172841D01*
X0006000Y0174439D02*
X0022000Y0174439D01*
X0022000Y0172841D02*
X0020053Y0172841D01*
X0021651Y0171242D02*
X0022000Y0171242D01*
X0022000Y0176038D02*
X0006000Y0176038D01*
X0006000Y0177636D02*
X0022000Y0177636D01*
X0022000Y0179235D02*
X0006000Y0179235D01*
X0006000Y0180833D02*
X0011873Y0180833D01*
X0010275Y0182432D02*
X0006000Y0182432D01*
X0006000Y0184030D02*
X0009422Y0184030D01*
X0008863Y0185629D02*
X0006000Y0185629D01*
X0006000Y0187227D02*
X0008863Y0187227D01*
X0009114Y0188826D02*
X0006000Y0188826D01*
X0006000Y0190424D02*
X0009776Y0190424D01*
X0011130Y0192023D02*
X0006000Y0192023D01*
X0006000Y0193621D02*
X0013818Y0193621D01*
X0018182Y0193621D02*
X0022425Y0193621D01*
X0022000Y0192023D02*
X0020870Y0192023D01*
X0023763Y0195220D02*
X0006000Y0195220D01*
X0006000Y0196818D02*
X0025362Y0196818D01*
X0026960Y0198417D02*
X0006000Y0198417D01*
X0006000Y0200015D02*
X0013730Y0200015D01*
X0014580Y0199663D02*
X0017420Y0199663D01*
X0020043Y0200750D01*
X0022050Y0202757D01*
X0023137Y0205380D01*
X0023137Y0208220D01*
X0022050Y0210843D01*
X0020043Y0212850D01*
X0017420Y0213937D01*
X0014580Y0213937D01*
X0011957Y0212850D01*
X0009950Y0210843D01*
X0008863Y0208220D01*
X0008863Y0205380D01*
X0009950Y0202757D01*
X0011957Y0200750D01*
X0014580Y0199663D01*
X0018270Y0200015D02*
X0028559Y0200015D01*
X0030157Y0201614D02*
X0020907Y0201614D01*
X0022239Y0203212D02*
X0031756Y0203212D01*
X0033354Y0204811D02*
X0022901Y0204811D01*
X0023137Y0206409D02*
X0034025Y0206409D01*
X0031679Y0208008D02*
X0023137Y0208008D01*
X0022563Y0209606D02*
X0030680Y0209606D01*
X0030286Y0211205D02*
X0021688Y0211205D01*
X0020090Y0212803D02*
X0030350Y0212803D01*
X0030887Y0214402D02*
X0006000Y0214402D01*
X0006000Y0216001D02*
X0032087Y0216001D01*
X0035816Y0216001D02*
X0036184Y0216001D01*
X0036184Y0214402D02*
X0035816Y0214402D01*
X0035816Y0212803D02*
X0036184Y0212803D01*
X0039913Y0216001D02*
X0040107Y0216001D01*
X0041706Y0217599D02*
X0006000Y0217599D01*
X0006000Y0212803D02*
X0011910Y0212803D01*
X0010312Y0211205D02*
X0006000Y0211205D01*
X0006000Y0209606D02*
X0009437Y0209606D01*
X0008863Y0208008D02*
X0006000Y0208008D01*
X0006000Y0206409D02*
X0008863Y0206409D01*
X0009099Y0204811D02*
X0006000Y0204811D01*
X0006000Y0203212D02*
X0009761Y0203212D01*
X0011093Y0201614D02*
X0006000Y0201614D01*
X0020127Y0180833D02*
X0022000Y0180833D01*
X0022000Y0182432D02*
X0021725Y0182432D01*
X0030000Y0187227D02*
X0031334Y0187227D01*
X0030070Y0177636D02*
X0030000Y0177636D01*
X0030000Y0176038D02*
X0031669Y0176038D01*
X0039872Y0200015D02*
X0083730Y0200015D01*
X0081093Y0201614D02*
X0041471Y0201614D01*
X0043069Y0203212D02*
X0079761Y0203212D01*
X0079099Y0204811D02*
X0070931Y0204811D01*
X0072799Y0206409D02*
X0078863Y0206409D01*
X0078863Y0208008D02*
X0073137Y0208008D01*
X0073137Y0209606D02*
X0079437Y0209606D01*
X0080312Y0211205D02*
X0073137Y0211205D01*
X0073137Y0212803D02*
X0081910Y0212803D01*
X0074661Y0225592D02*
X0096000Y0225592D01*
X0096000Y0227190D02*
X0076483Y0227190D01*
X0077478Y0228789D02*
X0096000Y0228789D01*
X0096000Y0230387D02*
X0078137Y0230387D01*
X0078137Y0231986D02*
X0096000Y0231986D01*
X0096000Y0233584D02*
X0077986Y0233584D01*
X0077324Y0235183D02*
X0096000Y0235183D01*
X0096000Y0236781D02*
X0076112Y0236781D01*
X0066000Y0216800D02*
X0066000Y0211800D01*
X0066000Y0216800D02*
X0051000Y0231800D01*
X0051000Y0264300D01*
X0041864Y0278342D02*
X0034648Y0278342D01*
X0036399Y0279941D02*
X0040266Y0279941D01*
X0039418Y0281539D02*
X0037325Y0281539D01*
X0037900Y0283138D02*
X0038863Y0283138D01*
X0038863Y0284737D02*
X0037900Y0284737D01*
X0037626Y0286335D02*
X0039118Y0286335D01*
X0039780Y0287934D02*
X0036963Y0287934D01*
X0035526Y0289532D02*
X0041139Y0289532D01*
X0043841Y0291131D02*
X0032540Y0291131D01*
X0028228Y0292729D02*
X0052000Y0292729D01*
X0052000Y0291131D02*
X0048159Y0291131D01*
X0050861Y0289532D02*
X0051139Y0289532D01*
X0052000Y0294328D02*
X0026629Y0294328D01*
X0025031Y0295926D02*
X0052000Y0295926D01*
X0052000Y0297525D02*
X0023432Y0297525D01*
X0021834Y0299123D02*
X0052000Y0299123D01*
X0056000Y0304300D02*
X0056000Y0284300D01*
X0060861Y0289532D02*
X0066050Y0289532D01*
X0066050Y0289300D02*
X0071000Y0289300D01*
X0071000Y0289300D01*
X0071000Y0294250D01*
X0073050Y0294250D01*
X0075261Y0292039D01*
X0075617Y0292897D01*
X0077403Y0294683D01*
X0079737Y0295650D01*
X0082263Y0295650D01*
X0084597Y0294683D01*
X0086383Y0292897D01*
X0087350Y0290563D01*
X0087350Y0288037D01*
X0086383Y0285703D01*
X0084597Y0283917D01*
X0082263Y0282950D01*
X0079737Y0282950D01*
X0077403Y0283917D01*
X0075617Y0285703D01*
X0075261Y0286561D01*
X0073050Y0284350D01*
X0071000Y0284350D01*
X0071000Y0289300D01*
X0071000Y0289300D01*
X0071000Y0289300D01*
X0071000Y0294250D01*
X0068950Y0294250D01*
X0066050Y0291350D01*
X0066050Y0289300D01*
X0066050Y0287250D01*
X0068950Y0284350D01*
X0071000Y0284350D01*
X0071000Y0289300D01*
X0066050Y0289300D01*
X0066050Y0287934D02*
X0062220Y0287934D01*
X0062882Y0286335D02*
X0066965Y0286335D01*
X0068563Y0284737D02*
X0063137Y0284737D01*
X0063137Y0283138D02*
X0079283Y0283138D01*
X0076583Y0284737D02*
X0073437Y0284737D01*
X0075035Y0286335D02*
X0075355Y0286335D01*
X0071000Y0286335D02*
X0071000Y0286335D01*
X0071000Y0284737D02*
X0071000Y0284737D01*
X0071000Y0287934D02*
X0071000Y0287934D01*
X0071000Y0289532D02*
X0071000Y0289532D01*
X0071000Y0291131D02*
X0071000Y0291131D01*
X0071000Y0292729D02*
X0071000Y0292729D01*
X0074571Y0292729D02*
X0075547Y0292729D01*
X0077047Y0294328D02*
X0060000Y0294328D01*
X0060000Y0295926D02*
X0096000Y0295926D01*
X0096000Y0294328D02*
X0084953Y0294328D01*
X0086453Y0292729D02*
X0096000Y0292729D01*
X0096000Y0291131D02*
X0087115Y0291131D01*
X0087350Y0289532D02*
X0096000Y0289532D01*
X0096000Y0287934D02*
X0087307Y0287934D01*
X0086645Y0286335D02*
X0096000Y0286335D01*
X0096000Y0284737D02*
X0085417Y0284737D01*
X0082717Y0283138D02*
X0096000Y0283138D01*
X0096000Y0281539D02*
X0062582Y0281539D01*
X0061734Y0279941D02*
X0096000Y0279941D01*
X0096000Y0278342D02*
X0060136Y0278342D01*
X0060000Y0291131D02*
X0066050Y0291131D01*
X0067429Y0292729D02*
X0060000Y0292729D01*
X0060000Y0297525D02*
X0096000Y0297525D01*
X0096000Y0299123D02*
X0060000Y0299123D01*
X0056000Y0304300D02*
X0017142Y0304300D01*
X0016000Y0305442D01*
X0016000Y0324300D01*
X0018249Y0331093D02*
X0029370Y0331093D01*
X0026437Y0329495D02*
X0020898Y0329495D01*
X0022235Y0327896D02*
X0025021Y0327896D01*
X0024359Y0326298D02*
X0022898Y0326298D01*
X0023137Y0324699D02*
X0024100Y0324699D01*
X0024100Y0323101D02*
X0023137Y0323101D01*
X0022566Y0321502D02*
X0024690Y0321502D01*
X0025638Y0319904D02*
X0021697Y0319904D01*
X0020098Y0318305D02*
X0027442Y0318305D01*
X0031000Y0324300D02*
X0046000Y0339300D01*
X0046000Y0344300D01*
X0051401Y0351874D02*
X0052590Y0351874D01*
X0055800Y0351874D02*
X0056200Y0351874D01*
X0056200Y0350275D02*
X0055800Y0350275D01*
X0055800Y0348677D02*
X0056200Y0348677D01*
X0056200Y0347078D02*
X0055800Y0347078D01*
X0055800Y0345480D02*
X0056200Y0345480D01*
X0056200Y0343881D02*
X0055800Y0343881D01*
X0055800Y0342283D02*
X0056200Y0342283D01*
X0056200Y0340684D02*
X0055800Y0340684D01*
X0055800Y0339086D02*
X0056200Y0339086D01*
X0056200Y0337487D02*
X0055800Y0337487D01*
X0055800Y0335889D02*
X0056200Y0335889D01*
X0058036Y0335889D02*
X0079411Y0335889D01*
X0077813Y0337487D02*
X0060144Y0337487D01*
X0061016Y0339086D02*
X0076214Y0339086D01*
X0074616Y0340684D02*
X0061300Y0340684D01*
X0061300Y0342283D02*
X0073017Y0342283D01*
X0071419Y0343881D02*
X0061300Y0343881D01*
X0061300Y0345480D02*
X0069820Y0345480D01*
X0068222Y0347078D02*
X0061300Y0347078D01*
X0061227Y0348677D02*
X0066623Y0348677D01*
X0065025Y0350275D02*
X0060687Y0350275D01*
X0059410Y0351874D02*
X0063426Y0351874D01*
X0061828Y0353472D02*
X0049803Y0353472D01*
X0042197Y0353472D02*
X0040172Y0353472D01*
X0040599Y0351874D02*
X0038574Y0351874D01*
X0039773Y0350275D02*
X0036975Y0350275D01*
X0035377Y0348677D02*
X0039300Y0348677D01*
X0039300Y0347078D02*
X0033778Y0347078D01*
X0032180Y0345480D02*
X0039300Y0345480D01*
X0039300Y0343881D02*
X0030581Y0343881D01*
X0028983Y0342283D02*
X0039300Y0342283D01*
X0039300Y0340684D02*
X0027384Y0340684D01*
X0025786Y0339086D02*
X0039458Y0339086D01*
X0038531Y0337487D02*
X0024187Y0337487D01*
X0022589Y0335889D02*
X0036932Y0335889D01*
X0035334Y0334290D02*
X0020990Y0334290D01*
X0019392Y0332692D02*
X0033735Y0332692D01*
X0038655Y0326298D02*
X0040617Y0326298D01*
X0040683Y0326502D02*
X0040404Y0325643D01*
X0040263Y0324752D01*
X0040263Y0324484D01*
X0045816Y0324484D01*
X0045816Y0324116D01*
X0040263Y0324116D01*
X0040263Y0323848D01*
X0040404Y0322957D01*
X0040683Y0322098D01*
X0041093Y0321293D01*
X0041624Y0320563D01*
X0042263Y0319924D01*
X0042993Y0319393D01*
X0043798Y0318983D01*
X0044657Y0318704D01*
X0045548Y0318563D01*
X0045816Y0318563D01*
X0045816Y0324116D01*
X0046184Y0324116D01*
X0046184Y0318563D01*
X0046452Y0318563D01*
X0047343Y0318704D01*
X0048202Y0318983D01*
X0049007Y0319393D01*
X0049737Y0319924D01*
X0050010Y0320197D01*
X0051957Y0318250D01*
X0054580Y0317163D01*
X0057420Y0317163D01*
X0060043Y0318250D01*
X0062050Y0320257D01*
X0063137Y0322880D01*
X0063137Y0325720D01*
X0062050Y0328343D01*
X0060043Y0330350D01*
X0057420Y0331437D01*
X0054580Y0331437D01*
X0051957Y0330350D01*
X0050010Y0328403D01*
X0049737Y0328676D01*
X0049007Y0329207D01*
X0048202Y0329617D01*
X0047343Y0329896D01*
X0046452Y0330037D01*
X0046184Y0330037D01*
X0046184Y0324484D01*
X0045816Y0324484D01*
X0045816Y0330037D01*
X0045548Y0330037D01*
X0044657Y0329896D01*
X0043798Y0329617D01*
X0042993Y0329207D01*
X0042263Y0328676D01*
X0041624Y0328037D01*
X0041093Y0327307D01*
X0040683Y0326502D01*
X0040253Y0327896D02*
X0041522Y0327896D01*
X0041852Y0329495D02*
X0043559Y0329495D01*
X0043450Y0331093D02*
X0053751Y0331093D01*
X0051102Y0329495D02*
X0048441Y0329495D01*
X0046184Y0329495D02*
X0045816Y0329495D01*
X0045816Y0327896D02*
X0046184Y0327896D01*
X0046184Y0326298D02*
X0045816Y0326298D01*
X0045816Y0324699D02*
X0046184Y0324699D01*
X0046184Y0323101D02*
X0045816Y0323101D01*
X0045816Y0321502D02*
X0046184Y0321502D01*
X0046184Y0319904D02*
X0045816Y0319904D01*
X0042291Y0319904D02*
X0036362Y0319904D01*
X0037310Y0321502D02*
X0040987Y0321502D01*
X0040381Y0323101D02*
X0037900Y0323101D01*
X0037900Y0324699D02*
X0040263Y0324699D01*
X0034558Y0318305D02*
X0051902Y0318305D01*
X0050303Y0319904D02*
X0049709Y0319904D01*
X0058249Y0331093D02*
X0084207Y0331093D01*
X0085805Y0329495D02*
X0060898Y0329495D01*
X0062235Y0327896D02*
X0087404Y0327896D01*
X0089002Y0326298D02*
X0062898Y0326298D01*
X0063137Y0324699D02*
X0090601Y0324699D01*
X0092199Y0323101D02*
X0063137Y0323101D01*
X0062566Y0321502D02*
X0093798Y0321502D01*
X0095396Y0319904D02*
X0084065Y0319904D01*
X0085975Y0318305D02*
X0096000Y0318305D01*
X0096000Y0316707D02*
X0086876Y0316707D01*
X0087350Y0315108D02*
X0096000Y0315108D01*
X0096000Y0313510D02*
X0087350Y0313510D01*
X0086884Y0311911D02*
X0096000Y0311911D01*
X0096000Y0310313D02*
X0085993Y0310313D01*
X0085000Y0308714D02*
X0096000Y0308714D01*
X0096000Y0307116D02*
X0084425Y0307116D01*
X0082874Y0305517D02*
X0096000Y0305517D01*
X0096000Y0303919D02*
X0081275Y0303919D01*
X0079677Y0302320D02*
X0096000Y0302320D01*
X0096000Y0300722D02*
X0077814Y0300722D01*
X0076000Y0304300D02*
X0056000Y0304300D01*
X0066050Y0312250D02*
X0068950Y0309350D01*
X0071000Y0309350D01*
X0071000Y0314300D01*
X0071000Y0314300D01*
X0071000Y0314300D01*
X0066050Y0314300D01*
X0066050Y0316350D01*
X0068950Y0319250D01*
X0071000Y0319250D01*
X0071000Y0314300D01*
X0066050Y0314300D01*
X0066050Y0312250D01*
X0066388Y0311911D02*
X0020000Y0311911D01*
X0020000Y0310313D02*
X0067987Y0310313D01*
X0071000Y0310313D02*
X0071000Y0310313D01*
X0071000Y0311911D02*
X0071000Y0311911D01*
X0071000Y0313510D02*
X0071000Y0313510D01*
X0071000Y0315108D02*
X0071000Y0315108D01*
X0071000Y0316707D02*
X0071000Y0316707D01*
X0071000Y0318305D02*
X0071000Y0318305D01*
X0073995Y0318305D02*
X0076025Y0318305D01*
X0077935Y0319904D02*
X0061697Y0319904D01*
X0060098Y0318305D02*
X0068005Y0318305D01*
X0066406Y0316707D02*
X0020000Y0316707D01*
X0020000Y0315108D02*
X0066050Y0315108D01*
X0066050Y0313510D02*
X0020000Y0313510D01*
X0020000Y0308714D02*
X0074757Y0308714D01*
X0074013Y0310313D02*
X0076007Y0310313D01*
X0081000Y0309300D02*
X0076000Y0304300D01*
X0081000Y0309300D02*
X0081000Y0314300D01*
X0082608Y0332692D02*
X0045049Y0332692D01*
X0047792Y0334290D02*
X0081010Y0334290D01*
X0053964Y0335889D02*
X0050564Y0335889D01*
X0017142Y0304300D02*
X0017142Y0298158D01*
X0031000Y0284300D01*
X0027352Y0278342D02*
X0020136Y0278342D01*
X0021734Y0279941D02*
X0025601Y0279941D01*
X0024675Y0281539D02*
X0022582Y0281539D01*
X0023137Y0283138D02*
X0024100Y0283138D01*
X0024100Y0284737D02*
X0023137Y0284737D01*
X0023308Y0286335D02*
X0022882Y0286335D01*
X0018513Y0291131D02*
X0018159Y0291131D01*
X0016914Y0292729D02*
X0006000Y0292729D01*
X0006000Y0291131D02*
X0013841Y0291131D01*
X0011139Y0289532D02*
X0006000Y0289532D01*
X0006000Y0287934D02*
X0009780Y0287934D01*
X0009118Y0286335D02*
X0006000Y0286335D01*
X0006000Y0284737D02*
X0008863Y0284737D01*
X0008863Y0283138D02*
X0006000Y0283138D01*
X0006000Y0281539D02*
X0009418Y0281539D01*
X0010266Y0279941D02*
X0006000Y0279941D01*
X0006000Y0278342D02*
X0011864Y0278342D01*
X0006000Y0276744D02*
X0096000Y0276744D01*
X0096000Y0275145D02*
X0006000Y0275145D01*
X0006000Y0273547D02*
X0096000Y0273547D01*
X0096000Y0271948D02*
X0075269Y0271948D01*
X0077254Y0270350D02*
X0096000Y0270350D01*
X0096000Y0268751D02*
X0078573Y0268751D01*
X0079235Y0267153D02*
X0096000Y0267153D01*
X0096000Y0265554D02*
X0079700Y0265554D01*
X0079700Y0263956D02*
X0096000Y0263956D01*
X0096000Y0262357D02*
X0079612Y0262357D01*
X0078950Y0260759D02*
X0096000Y0260759D01*
X0096000Y0259160D02*
X0078164Y0259160D01*
X0076565Y0257562D02*
X0096000Y0257562D01*
X0061069Y0204811D02*
X0057777Y0204811D01*
X0054223Y0204811D02*
X0047777Y0204811D01*
X0050703Y0206409D02*
X0051297Y0206409D01*
X0049953Y0227190D02*
X0036483Y0227190D01*
X0037478Y0228789D02*
X0048355Y0228789D01*
X0047256Y0230387D02*
X0038137Y0230387D01*
X0038137Y0231986D02*
X0047000Y0231986D01*
X0047000Y0233584D02*
X0037986Y0233584D01*
X0037324Y0235183D02*
X0047000Y0235183D01*
X0047000Y0236781D02*
X0036112Y0236781D01*
X0033765Y0238380D02*
X0047000Y0238380D01*
X0025435Y0257562D02*
X0006000Y0257562D01*
X0006000Y0259160D02*
X0023836Y0259160D01*
X0023050Y0260759D02*
X0006000Y0260759D01*
X0006000Y0262357D02*
X0022388Y0262357D01*
X0022300Y0263956D02*
X0006000Y0263956D01*
X0006000Y0265554D02*
X0022300Y0265554D01*
X0022765Y0267153D02*
X0006000Y0267153D01*
X0006000Y0268751D02*
X0023427Y0268751D01*
X0024746Y0270350D02*
X0006000Y0270350D01*
X0006000Y0271948D02*
X0026731Y0271948D01*
X0015316Y0294328D02*
X0006000Y0294328D01*
X0006000Y0295926D02*
X0013737Y0295926D01*
X0013142Y0297525D02*
X0006000Y0297525D01*
X0006000Y0299123D02*
X0013142Y0299123D01*
X0013142Y0300722D02*
X0006000Y0300722D01*
X0006000Y0302320D02*
X0013142Y0302320D01*
X0012301Y0303919D02*
X0006000Y0303919D01*
X0006000Y0305517D02*
X0012000Y0305517D01*
X0012000Y0307116D02*
X0006000Y0307116D01*
X0006000Y0308714D02*
X0012000Y0308714D01*
X0012000Y0310313D02*
X0006000Y0310313D01*
X0006000Y0311911D02*
X0012000Y0311911D01*
X0012000Y0313510D02*
X0006000Y0313510D01*
X0006000Y0315108D02*
X0012000Y0315108D01*
X0012000Y0316707D02*
X0006000Y0316707D01*
X0006000Y0318305D02*
X0011902Y0318305D01*
X0010303Y0319904D02*
X0006604Y0319904D01*
X0008202Y0321502D02*
X0009434Y0321502D01*
X0088182Y0193621D02*
X0096000Y0193621D01*
X0096000Y0192023D02*
X0090870Y0192023D01*
X0092224Y0190424D02*
X0096000Y0190424D01*
X0096000Y0188826D02*
X0092886Y0188826D01*
X0093137Y0187227D02*
X0096000Y0187227D01*
X0096000Y0185629D02*
X0093137Y0185629D01*
X0094427Y0184030D02*
X0096000Y0184030D01*
X0089507Y0177636D02*
X0071929Y0177636D01*
X0072662Y0179235D02*
X0087908Y0179235D01*
X0091105Y0176038D02*
X0070331Y0176038D01*
X0074079Y0163250D02*
X0079746Y0163250D01*
X0081056Y0161651D02*
X0076242Y0161651D01*
X0077378Y0160053D02*
X0083640Y0160053D01*
X0092000Y0140870D02*
X0075043Y0140870D01*
X0076179Y0139272D02*
X0092000Y0139272D01*
X0091217Y0137673D02*
X0076670Y0137673D01*
X0076694Y0136075D02*
X0089618Y0136075D01*
X0088020Y0134476D02*
X0076255Y0134476D01*
X0088450Y0120090D02*
X0096000Y0120090D01*
X0096000Y0121688D02*
X0090982Y0121688D01*
X0092270Y0123287D02*
X0096000Y0123287D01*
X0096000Y0124885D02*
X0092932Y0124885D01*
X0093137Y0126484D02*
X0096000Y0126484D01*
X0096000Y0128082D02*
X0093137Y0128082D01*
X0094538Y0129681D02*
X0096000Y0129681D01*
X0096000Y0102506D02*
X0059203Y0102506D01*
X0060802Y0100908D02*
X0096000Y0100908D01*
X0096000Y0099309D02*
X0062300Y0099309D01*
X0062300Y0097711D02*
X0096000Y0097711D01*
X0091200Y0096112D02*
X0090800Y0096112D01*
X0090800Y0094514D02*
X0091200Y0094514D01*
X0091200Y0092915D02*
X0090800Y0092915D01*
X0084418Y0096112D02*
X0062300Y0096112D01*
X0062300Y0094514D02*
X0082934Y0094514D01*
X0082311Y0092915D02*
X0061025Y0092915D01*
X0060000Y0091317D02*
X0082210Y0091317D01*
X0082612Y0089718D02*
X0060000Y0089718D01*
X0060000Y0088120D02*
X0083685Y0088120D01*
X0082746Y0086521D02*
X0060000Y0086521D01*
X0060000Y0084923D02*
X0081541Y0084923D01*
X0080879Y0083324D02*
X0073899Y0083324D01*
X0075043Y0082850D02*
X0072420Y0083937D01*
X0069580Y0083937D01*
X0066957Y0082850D01*
X0064950Y0080843D01*
X0063863Y0078220D01*
X0063863Y0075380D01*
X0064950Y0072757D01*
X0066957Y0070750D01*
X0069580Y0069663D01*
X0072420Y0069663D01*
X0075043Y0070750D01*
X0077050Y0072757D01*
X0078137Y0075380D01*
X0078137Y0078220D01*
X0077050Y0080843D01*
X0075043Y0082850D01*
X0076168Y0081726D02*
X0080800Y0081726D01*
X0080941Y0080127D02*
X0077347Y0080127D01*
X0078009Y0078529D02*
X0081603Y0078529D01*
X0082895Y0076930D02*
X0078137Y0076930D01*
X0078117Y0075332D02*
X0085608Y0075332D01*
X0077455Y0073733D02*
X0096000Y0073733D01*
X0096000Y0072134D02*
X0076428Y0072134D01*
X0074527Y0070536D02*
X0096000Y0070536D01*
X0096000Y0068937D02*
X0064444Y0068937D01*
X0065000Y0067339D02*
X0096000Y0067339D01*
X0096000Y0065740D02*
X0072851Y0065740D01*
X0072782Y0065759D02*
X0071800Y0065888D01*
X0071800Y0057600D01*
X0080088Y0057600D01*
X0079959Y0058582D01*
X0079650Y0059736D01*
X0079192Y0060840D01*
X0078595Y0061875D01*
X0077868Y0062823D01*
X0077023Y0063668D01*
X0076075Y0064395D01*
X0075040Y0064992D01*
X0073936Y0065450D01*
X0072782Y0065759D01*
X0071800Y0065740D02*
X0070200Y0065740D01*
X0069149Y0065740D02*
X0065000Y0065740D01*
X0065000Y0064142D02*
X0065595Y0064142D01*
X0070200Y0064142D02*
X0071800Y0064142D01*
X0071800Y0062543D02*
X0070200Y0062543D01*
X0070200Y0060945D02*
X0071800Y0060945D01*
X0071800Y0059346D02*
X0070200Y0059346D01*
X0070200Y0057748D02*
X0071800Y0057748D01*
X0071800Y0056149D02*
X0096000Y0056149D01*
X0096000Y0054551D02*
X0079834Y0054551D01*
X0079959Y0055018D02*
X0080088Y0056000D01*
X0071800Y0056000D01*
X0071800Y0047712D01*
X0072782Y0047841D01*
X0073936Y0048150D01*
X0075040Y0048607D01*
X0076075Y0049205D01*
X0077023Y0049932D01*
X0077868Y0050777D01*
X0078595Y0051725D01*
X0079192Y0052760D01*
X0079650Y0053864D01*
X0079959Y0055018D01*
X0079272Y0052952D02*
X0096000Y0052952D01*
X0096000Y0051354D02*
X0078310Y0051354D01*
X0076792Y0049755D02*
X0096000Y0049755D01*
X0096000Y0048157D02*
X0073952Y0048157D01*
X0075128Y0046558D02*
X0096000Y0046558D01*
X0096000Y0044960D02*
X0077711Y0044960D01*
X0079309Y0043361D02*
X0096000Y0043361D01*
X0096000Y0041763D02*
X0080276Y0041763D01*
X0080984Y0040164D02*
X0096000Y0040164D01*
X0096000Y0038566D02*
X0081413Y0038566D01*
X0081515Y0036967D02*
X0096000Y0036967D01*
X0096000Y0035369D02*
X0081502Y0035369D01*
X0081074Y0033770D02*
X0096000Y0033770D01*
X0096000Y0032172D02*
X0080469Y0032172D01*
X0079547Y0030573D02*
X0096000Y0030573D01*
X0096000Y0028975D02*
X0078045Y0028975D01*
X0075707Y0027376D02*
X0096000Y0027376D01*
X0096000Y0025778D02*
X0076480Y0025778D01*
X0078491Y0024179D02*
X0096000Y0024179D01*
X0096000Y0022581D02*
X0079804Y0022581D01*
X0080727Y0020982D02*
X0096000Y0020982D01*
X0096000Y0019384D02*
X0081194Y0019384D01*
X0081515Y0017785D02*
X0096000Y0017785D01*
X0096000Y0016187D02*
X0081515Y0016187D01*
X0081293Y0014588D02*
X0096000Y0014588D01*
X0096000Y0012990D02*
X0080865Y0012990D01*
X0080019Y0011391D02*
X0096000Y0011391D01*
X0096000Y0009793D02*
X0078863Y0009793D01*
X0077124Y0008194D02*
X0096000Y0008194D01*
X0096000Y0006596D02*
X0073543Y0006596D01*
X0068457Y0006596D02*
X0053543Y0006596D01*
X0057124Y0008194D02*
X0064876Y0008194D01*
X0063137Y0009793D02*
X0058863Y0009793D01*
X0060019Y0011391D02*
X0061981Y0011391D01*
X0061135Y0012990D02*
X0060865Y0012990D01*
X0048457Y0006596D02*
X0006000Y0006596D01*
X0006000Y0008194D02*
X0027958Y0008194D01*
X0028064Y0008150D02*
X0029218Y0007841D01*
X0030200Y0007712D01*
X0030200Y0016000D01*
X0031800Y0016000D01*
X0031800Y0017600D01*
X0040088Y0017600D01*
X0039959Y0018582D01*
X0039650Y0019736D01*
X0039192Y0020840D01*
X0038595Y0021875D01*
X0037868Y0022823D01*
X0037023Y0023668D01*
X0036075Y0024395D01*
X0035040Y0024992D01*
X0033936Y0025450D01*
X0032782Y0025759D01*
X0031800Y0025888D01*
X0031800Y0017600D01*
X0030200Y0017600D01*
X0030200Y0025888D01*
X0029218Y0025759D01*
X0028064Y0025450D01*
X0026960Y0024992D01*
X0025925Y0024395D01*
X0024977Y0023668D01*
X0024132Y0022823D01*
X0023405Y0021875D01*
X0022807Y0020840D01*
X0022350Y0019736D01*
X0022041Y0018582D01*
X0021912Y0017600D01*
X0030200Y0017600D01*
X0030200Y0016000D01*
X0021912Y0016000D01*
X0022041Y0015018D01*
X0022350Y0013864D01*
X0022807Y0012760D01*
X0023405Y0011725D01*
X0024132Y0010777D01*
X0024977Y0009932D01*
X0025925Y0009205D01*
X0026960Y0008607D01*
X0028064Y0008150D01*
X0030200Y0008194D02*
X0031800Y0008194D01*
X0031800Y0007712D02*
X0032782Y0007841D01*
X0033936Y0008150D01*
X0035040Y0008607D01*
X0036075Y0009205D01*
X0037023Y0009932D01*
X0037868Y0010777D01*
X0038595Y0011725D01*
X0039192Y0012760D01*
X0039650Y0013864D01*
X0039959Y0015018D01*
X0040088Y0016000D01*
X0031800Y0016000D01*
X0031800Y0007712D01*
X0031800Y0009793D02*
X0030200Y0009793D01*
X0030200Y0011391D02*
X0031800Y0011391D01*
X0031800Y0012990D02*
X0030200Y0012990D01*
X0030200Y0014588D02*
X0031800Y0014588D01*
X0031800Y0016187D02*
X0040485Y0016187D01*
X0040485Y0017785D02*
X0040064Y0017785D01*
X0039744Y0019384D02*
X0040806Y0019384D01*
X0041273Y0020982D02*
X0039110Y0020982D01*
X0038053Y0022581D02*
X0042196Y0022581D01*
X0043509Y0024179D02*
X0036356Y0024179D01*
X0035707Y0027376D02*
X0046293Y0027376D01*
X0045520Y0025778D02*
X0032640Y0025778D01*
X0031800Y0025778D02*
X0030200Y0025778D01*
X0029360Y0025778D02*
X0006000Y0025778D01*
X0006000Y0027376D02*
X0026293Y0027376D01*
X0023955Y0028975D02*
X0006000Y0028975D01*
X0006000Y0030573D02*
X0022453Y0030573D01*
X0021530Y0032172D02*
X0006000Y0032172D01*
X0006000Y0033770D02*
X0020926Y0033770D01*
X0020498Y0035369D02*
X0006000Y0035369D01*
X0006000Y0036967D02*
X0020176Y0036967D01*
X0018577Y0038566D02*
X0006000Y0038566D01*
X0006000Y0040164D02*
X0017348Y0040164D01*
X0017000Y0041763D02*
X0006000Y0041763D01*
X0006000Y0043361D02*
X0017000Y0043361D01*
X0017000Y0044960D02*
X0006000Y0044960D01*
X0006000Y0046558D02*
X0017000Y0046558D01*
X0017000Y0048157D02*
X0006000Y0048157D01*
X0006000Y0049755D02*
X0017000Y0049755D01*
X0017000Y0051354D02*
X0006000Y0051354D01*
X0006000Y0052952D02*
X0017000Y0052952D01*
X0017000Y0054551D02*
X0006000Y0054551D01*
X0006000Y0056149D02*
X0017000Y0056149D01*
X0017000Y0057748D02*
X0006000Y0057748D01*
X0006000Y0059346D02*
X0017000Y0059346D01*
X0017000Y0060945D02*
X0006000Y0060945D01*
X0006000Y0062543D02*
X0017000Y0062543D01*
X0017000Y0064142D02*
X0006000Y0064142D01*
X0006000Y0065740D02*
X0017000Y0065740D01*
X0017000Y0067339D02*
X0006000Y0067339D01*
X0006000Y0068937D02*
X0017000Y0068937D01*
X0017000Y0070536D02*
X0006000Y0070536D01*
X0006000Y0072134D02*
X0017000Y0072134D01*
X0021000Y0071800D02*
X0026000Y0076800D01*
X0031000Y0076800D01*
X0027473Y0070536D02*
X0025393Y0070536D01*
X0025455Y0065740D02*
X0025000Y0065740D01*
X0021000Y0071800D02*
X0021000Y0041800D01*
X0026000Y0036800D01*
X0031000Y0036800D01*
X0038045Y0028975D02*
X0043955Y0028975D01*
X0042453Y0030573D02*
X0039547Y0030573D01*
X0040469Y0032172D02*
X0041530Y0032172D01*
X0031800Y0024179D02*
X0030200Y0024179D01*
X0030200Y0022581D02*
X0031800Y0022581D01*
X0031800Y0020982D02*
X0030200Y0020982D01*
X0030200Y0019384D02*
X0031800Y0019384D01*
X0031800Y0017785D02*
X0030200Y0017785D01*
X0030200Y0016187D02*
X0006000Y0016187D01*
X0006000Y0017785D02*
X0021936Y0017785D01*
X0022256Y0019384D02*
X0006000Y0019384D01*
X0006000Y0020982D02*
X0022890Y0020982D01*
X0023947Y0022581D02*
X0006000Y0022581D01*
X0006000Y0024179D02*
X0025644Y0024179D01*
X0022156Y0014588D02*
X0006000Y0014588D01*
X0006000Y0012990D02*
X0022712Y0012990D01*
X0023661Y0011391D02*
X0006000Y0011391D01*
X0006000Y0009793D02*
X0025159Y0009793D01*
X0034042Y0008194D02*
X0044876Y0008194D01*
X0043137Y0009793D02*
X0036841Y0009793D01*
X0038339Y0011391D02*
X0041981Y0011391D01*
X0041135Y0012990D02*
X0039288Y0012990D01*
X0039844Y0014588D02*
X0040707Y0014588D01*
X0066000Y0036800D02*
X0061000Y0041800D01*
X0061000Y0066800D01*
X0056000Y0071800D01*
X0060000Y0073733D02*
X0064545Y0073733D01*
X0063883Y0075332D02*
X0060000Y0075332D01*
X0060000Y0076930D02*
X0063863Y0076930D01*
X0063991Y0078529D02*
X0060000Y0078529D01*
X0060000Y0080127D02*
X0064653Y0080127D01*
X0065832Y0081726D02*
X0060000Y0081726D01*
X0060000Y0083324D02*
X0068101Y0083324D01*
X0065572Y0072134D02*
X0061322Y0072134D01*
X0062921Y0070536D02*
X0067473Y0070536D01*
X0076405Y0064142D02*
X0096000Y0064142D01*
X0096000Y0062543D02*
X0078082Y0062543D01*
X0079132Y0060945D02*
X0096000Y0060945D01*
X0096000Y0059346D02*
X0079754Y0059346D01*
X0080069Y0057748D02*
X0096000Y0057748D01*
X0071800Y0054551D02*
X0070200Y0054551D01*
X0070200Y0052952D02*
X0071800Y0052952D01*
X0071800Y0051354D02*
X0070200Y0051354D01*
X0070200Y0049755D02*
X0071800Y0049755D01*
X0071800Y0048157D02*
X0070200Y0048157D01*
X0068048Y0048157D02*
X0065000Y0048157D01*
X0065000Y0049755D02*
X0065208Y0049755D01*
X0065000Y0046558D02*
X0066872Y0046558D01*
X0066000Y0036800D02*
X0071000Y0036800D01*
X0045455Y0065740D02*
X0036545Y0065740D01*
X0038528Y0064142D02*
X0043472Y0064142D01*
X0042174Y0062543D02*
X0039826Y0062543D01*
X0040749Y0060945D02*
X0041251Y0060945D01*
X0052000Y0084923D02*
X0020459Y0084923D01*
X0019254Y0086521D02*
X0052000Y0086521D01*
X0052000Y0088120D02*
X0018315Y0088120D01*
X0016452Y0121063D02*
X0016184Y0121063D01*
X0016184Y0126616D01*
X0015816Y0126616D01*
X0010263Y0126616D01*
X0010263Y0126348D01*
X0010404Y0125457D01*
X0010683Y0124598D01*
X0011093Y0123793D01*
X0011624Y0123063D01*
X0012263Y0122424D01*
X0012993Y0121893D01*
X0013798Y0121483D01*
X0014657Y0121204D01*
X0015548Y0121063D01*
X0015816Y0121063D01*
X0015816Y0126616D01*
X0015816Y0126984D01*
X0010263Y0126984D01*
X0010263Y0127252D01*
X0010404Y0128143D01*
X0010683Y0129002D01*
X0011093Y0129807D01*
X0011624Y0130537D01*
X0012263Y0131176D01*
X0012993Y0131707D01*
X0013798Y0132117D01*
X0014657Y0132396D01*
X0015548Y0132537D01*
X0015816Y0132537D01*
X0015816Y0126984D01*
X0016184Y0126984D01*
X0016184Y0132537D01*
X0016452Y0132537D01*
X0017343Y0132396D01*
X0018202Y0132117D01*
X0019007Y0131707D01*
X0019737Y0131176D01*
X0020376Y0130537D01*
X0020907Y0129807D01*
X0021317Y0129002D01*
X0021596Y0128143D01*
X0021737Y0127252D01*
X0021737Y0126984D01*
X0016184Y0126984D01*
X0016184Y0126616D01*
X0021737Y0126616D01*
X0021737Y0126348D01*
X0021596Y0125457D01*
X0021317Y0124598D01*
X0020907Y0123793D01*
X0020376Y0123063D01*
X0019737Y0122424D01*
X0019007Y0121893D01*
X0018202Y0121483D01*
X0017343Y0121204D01*
X0016452Y0121063D01*
X0016184Y0121688D02*
X0015816Y0121688D01*
X0015816Y0123287D02*
X0016184Y0123287D01*
X0016184Y0124885D02*
X0015816Y0124885D01*
X0015816Y0126484D02*
X0016184Y0126484D01*
X0016184Y0128082D02*
X0015816Y0128082D01*
X0015816Y0129681D02*
X0016184Y0129681D01*
X0016184Y0131279D02*
X0015816Y0131279D01*
X0012405Y0131279D02*
X0006000Y0131279D01*
X0006000Y0129681D02*
X0011029Y0129681D01*
X0010395Y0128082D02*
X0006000Y0128082D01*
X0006000Y0126484D02*
X0010263Y0126484D01*
X0010590Y0124885D02*
X0006000Y0124885D01*
X0006000Y0123287D02*
X0011461Y0123287D01*
X0013395Y0121688D02*
X0006000Y0121688D01*
X0006000Y0132878D02*
X0024900Y0132878D01*
X0024237Y0134476D02*
X0006000Y0134476D01*
X0006000Y0136075D02*
X0023863Y0136075D01*
X0023863Y0137673D02*
X0006000Y0137673D01*
X0006000Y0139272D02*
X0024299Y0139272D01*
X0024977Y0140870D02*
X0006000Y0140870D01*
X0006000Y0142469D02*
X0026576Y0142469D01*
X0026427Y0131279D02*
X0019595Y0131279D01*
X0020971Y0129681D02*
X0029537Y0129681D01*
X0032463Y0129681D02*
X0039468Y0129681D01*
X0038863Y0128082D02*
X0021605Y0128082D01*
X0021737Y0126484D02*
X0038863Y0126484D01*
X0039068Y0124885D02*
X0021410Y0124885D01*
X0020539Y0123287D02*
X0039730Y0123287D01*
X0041018Y0121688D02*
X0018605Y0121688D01*
X0035573Y0131279D02*
X0040386Y0131279D01*
X0042024Y0132878D02*
X0037100Y0132878D01*
X0049976Y0132878D02*
X0052024Y0132878D01*
X0052797Y0102506D02*
X0049203Y0102506D01*
X0050802Y0100908D02*
X0051198Y0100908D01*
M02*
